<?xml version="1.0" encoding="utf-8"?>
<!-- Generator: Adobe Illustrator 24.0.0, SVG Export Plug-In . SVG Version: 6.00 Build 0)  -->
<svg version="1.1" id="Layer_1" xmlns="http://www.w3.org/2000/svg" xmlns:xlink="http://www.w3.org/1999/xlink" x="0px" y="0px"
	 viewBox="0 0 675.7 557.6" style="enable-background:new 0 0 675.7 557.6;" xml:space="preserve">
<style type="text/css">
	.st0{fill:none;}
	.st1{fill:#79C04F;}
	.st2{fill:#202F61;}
	.st3{fill:#EE3D23;}
	.st4{fill:#FDCB1B;}
	.st5{fill:#F7981D;}
	.st6{fill:#83298F;}
	.st7{fill:#00C0EC;}
	.st8{fill:#231F20;}
</style>
<g>
	<g>
		<polygon class="st0" points="152.2,227.4 152.2,251.3 181,251.3 178.4,241.4 		"/>
		<polygon class="st0" points="124,196.5 138.2,204.1 138.2,183.2 125.2,192.1 		"/>
		<polygon class="st0" points="120.3,210.5 117,223.2 130.5,215.9 		"/>
		<polygon class="st0" points="131.7,167.6 130.7,171.3 134.1,169 		"/>
		<polygon class="st0" points="109.5,251.3 138.2,251.3 138.2,227.7 112.1,241.7 		"/>
		<polygon class="st0" points="138.2,155.1 138.2,143 135.5,153.4 		"/>
		<polygon class="st0" points="173.7,223 170.4,210.4 160.3,215.8 		"/>
		<polygon class="st0" points="152.2,180.4 152.2,204.3 166.8,196.4 164.7,188.2 		"/>
		<path class="st1" d="M126.9,90.1c-1.5,10.6,13.2,10.4,13.2,10.4c-3.1-2.9-2.1-7.2-2.1-7.2c1.6,3.7,4.2,3.2,4.2,3.2
			c-1-3.7,2.4-7.1,2.4-7.1c3.1,3.7,2,7.3,2,7.3c2.8-0.4,3.5-4.3,3.5-4.3c3,4.5-0.6,8.5-0.6,8.5c18-2.2,13.3-14.1,11.3-18.5
			c-2-4.4,1.8-6.8,1.8-6.8c-5,0.7-7.2,4-7.2,4c-1.9-2.7-2.5-3.6-0.4-12.2c1.9-7.8-5.2-12.9-5.2-12.9c2.9,7.1-2.9,12.6-10.1,16.7
			c-7.2,4.1-8,9.9-8,9.9c-1.1-3.8-5.6-2.9-5.6-2.9C130.7,80.4,127.8,83.9,126.9,90.1z"/>
		<path class="st2" d="M178.2,341.6v1.2l-2.3,0.5c-1.7,0.3-3.3,0.5-5,0.5c-9.2,0-17.5-5.8-21.4-9c-3,3.1-9.3,8.1-20.4,9.7
			c-0.9,0.1-1.9,0.2-2.8,0.2c-4.1,0-8.3-1.2-12.6-3.7l-1.5-0.8v-43.4h66v10.8h18.9l8.2,0v-10.8h18.3v-1.6l20.9-38.1h-45l-37.7-145.9
			h-32.1L91,257.1H43.4L64,294.7v2h21V348l-2.5,0.3c-11.2,1.5-20-5.9-23.9-9.8c-9,8.3-19,9.7-26.4,9.1c3.4,1.4,7.5,1.7,12.1,0.8
			c7.1-1.3,12.8-4.9,12.9-4.9l2.4-1.5l1.6,2.3c12.4,18.4,35.2,6.1,41.9,1.8l0.7-0.4h5.1l0.7,0.5c18.9,13.3,35.7-1.1,36.4-1.7
			l1.9-1.7l1.9,1.7c10.8,9.5,24.3,5.6,32,2C180.5,345.6,179.2,344,178.2,341.6z M182.6,234.3L148,215.9l26.2-14.1L182.6,234.3z
			 M168.8,181l-19.7-12.3l14.1-9.6L168.8,181z M146.4,121.8h7.1l9,34.7l-16,11V121.8z M146.4,169.9l23.3,14.5l3.9,14.9l-27.1,14.6
			V169.9z M146.4,217.8l36.9,19.7l5.1,19.6h-42V217.8z M137.8,121.8h6.2v43.7l-15.2-9.5L137.8,121.8z M128.1,158.5l16.5,10.3
			l-23.5,16.1L128.1,158.5z M120.2,188.5l23.8-16.4v41.6l-26.8-14.2L120.2,188.5z M116.6,201.9l26.2,14L108,234.6L116.6,201.9z
			 M102,257.1l5.1-19.3L144,218v39.1H102z"/>
		<path class="st2" d="M193.9,346.5c0.9,0.6,2,1.1,3,1.5C197.2,345.9,195.9,345.9,193.9,346.5z"/>
		<path class="st2" d="M531.4,270.2L494,309.1l-288.7-1.5l-8.2,0h-18.9h-5.8h-1.5c0,0,0.5,4.4,1.5,10.2c1.2,7.6,3.2,17.5,5.6,23.5
			c0.1,0.2,0.1,0.3,0.2,0.4c1.1,2.4,2.3,4,3.7,4.9c4,2.7,8.9,0.8,12-0.1c2.1-0.6,3.3-0.6,3,1.5c0,0.2,0,0.3-0.1,0.5
			c-1.5,6.9-2.2,10.3,3.8,11l-0.1,0.1l0.9,0c0.5,0,1.1,0.1,1.8,0.1h12.5l0-0.1l12.5,0l0.1,0l336.4-0.5l64-40.8l14.8-48L531.4,270.2z
			"/>
		<path class="st3" d="M345.4,268.2c0-6.8-5.4-12.4-12-12.4h-18.6c-6.6,0-12,5.5-12,12.4v33.2h42.7V268.2z"/>
		<path class="st4" d="M392.8,268.2c0-6.8-5.4-12.4-12-12.4h-18.6c-6.6,0-12,5.5-12,12.4v33.2h42.7V268.2z"/>
		<path class="st5" d="M440.5,268.2c0-6.8-5.4-12.4-12-12.4h-18.6c-6.6,0-12,5.5-12,12.4v33.2h42.7V268.2z"/>
		<path class="st6" d="M488.8,268.2c0-6.8-5.4-12.4-12-12.4h-18.6c-6.6,0-12,5.5-12,12.4v33.2h42.7V268.2z"/>
		<path class="st7" d="M298.2,268.2c0-6.8-5.4-12.4-12-12.4h-18.6c-6.6,0-12,5.5-12,12.4v33.2h42.7V268.2z"/>
		<g>
			<path class="st2" d="M207.6,371.4c-9.9,0-16.1-5.2-19-8.6c-3.3,2.8-9.9,7.1-18.3,7.1c-8.9,0-16.9-5.6-20.7-8.7
				c-2.9,3-9,7.8-19.7,9.4c-9.1,1.3-17.2-4.4-21.1-7.8c-3,3.4-9.6,8.8-22.6,11.3c-11.5,2.3-20.6-5.3-24.6-9.3
				c-8.7,8.1-18.3,9.4-25.6,8.8c10.4,4.4,23.5-3.5,24.2-4l2.3-1.4l1.5,2.2c3.5,5.1,8,8.2,13.4,9.2c13.5,2.4,28.5-8.4,28.7-8.5
				l1.7-1.2l1.7,1.3c19,14.7,36,0,36.7-0.6l1.9-1.6l1.9,1.6c15,13.2,35.4-0.3,36.2-0.9l2.1-1.4l1.6,1.9c10.1,11.7,36.1,0.1,36.4,0
				l1.2-0.5l1.2,0.5c4.8,2.3,9.3,3.2,13.4,3.2c-7.3-2-12.5-6.5-15.3-9.3C223.6,367.1,217.2,371.4,207.6,371.4z"/>
		</g>
	</g>
	<g>
		<g>
			<path class="st2" d="M70.8,449c-1,2.4-2.5,4.4-4.2,6.2c-1.8,1.7-3.9,3.1-6.3,4c-2.4,0.9-4.9,1.4-7.6,1.4c-2.6,0-5.1-0.5-7.5-1.4
				c-2.4-0.9-4.4-2.2-6.2-3.9c-1.8-1.7-3.2-3.7-4.2-6c-1-2.3-1.5-4.9-1.5-7.7c0-3,0.5-5.7,1.6-8.1c1.1-2.4,2.5-4.4,4.4-6
				c1.8-1.7,4-2.9,6.4-3.8s5-1.3,7.7-1.3c3,0,5.6,0.5,8,1.6c2.3,1,4.3,2.4,6,4.2c1.6,1.8,2.9,3.8,3.8,6.1c0.9,2.3,1.3,4.7,1.3,7.2
				C72.4,444,71.9,446.6,70.8,449z M65.1,434.9c-0.5-2.2-1.4-4.1-2.5-5.9c-1.1-1.8-2.5-3.2-4.1-4.3c-1.6-1.1-3.6-1.6-5.8-1.6
				c-2.3,0-4.2,0.5-5.9,1.6c-1.7,1.1-3,2.5-4.1,4.2c-1.1,1.7-1.8,3.7-2.3,5.9c-0.5,2.2-0.8,4.4-0.8,6.7c0,2.4,0.3,4.6,0.8,6.8
				c0.6,2.2,1.4,4.1,2.5,5.8c1.1,1.7,2.5,3,4.1,4c1.7,1,3.6,1.5,5.8,1.5c2.2,0,4.1-0.6,5.7-1.7c1.6-1.1,3-2.5,4-4.3
				c1.1-1.8,1.9-3.7,2.4-5.9c0.5-2.2,0.8-4.4,0.8-6.6C65.9,439.2,65.6,437.1,65.1,434.9z"/>
			<path class="st2" d="M120.5,434.8c-0.5-1.7-1.1-3.2-2-4.7c-0.9-1.5-2-2.7-3.2-3.8c-1.2-1.1-2.6-1.9-4.2-2.6
				c-1.5-0.6-3.2-0.9-4.9-0.9c-2.4,0-4.5,0.5-6.4,1.6c-1.9,1.1-3.5,2.5-4.7,4.3c-1.3,1.8-2.2,3.8-2.9,6c-0.7,2.2-1,4.5-1,6.9
				c0,2.5,0.4,4.8,1.1,7c0.7,2.2,1.7,4.1,3.1,5.7c1.3,1.6,2.9,2.9,4.8,3.8c1.9,0.9,4,1.4,6.3,1.4c1.8,0,3.5-0.3,5.1-1
				c1.6-0.7,3-1.5,4.2-2.6c1.2-1.1,2.3-2.3,3.1-3.7c0.9-1.4,1.4-2.9,1.7-4.4h0.6l-0.2,11.5h-0.6c-0.4-0.6-0.9-1.1-1.3-1.6
				c-0.5-0.5-0.8-0.7-0.9-0.7c-0.1,0-0.4,0.2-0.9,0.5c-0.6,0.4-1.4,0.8-2.4,1.2c-1,0.4-2.3,0.8-3.8,1.1c-1.5,0.3-3.2,0.5-5.2,0.5
				c-3.2,0-6.2-0.5-8.8-1.4c-2.6-0.9-4.8-2.2-6.6-3.9c-1.8-1.7-3.2-3.7-4.2-6c-1-2.3-1.5-4.9-1.5-7.7c0-0.6,0-1.3,0.1-2.1
				c0.1-0.8,0.2-1.7,0.5-2.6c0.2-0.9,0.5-1.9,0.9-2.8c0.4-1,0.9-2,1.5-3c0.7-1.2,1.6-2.3,2.7-3.4c1.1-1.1,2.3-2,3.8-2.8
				c1.5-0.8,3.1-1.5,5-2c1.8-0.5,3.9-0.7,6.2-0.7c2.1,0,3.9,0.2,5.5,0.6c1.6,0.4,2.9,0.8,3.9,1.3c1,0.5,1.8,0.9,2.4,1.3
				c0.6,0.4,0.9,0.6,0.9,0.6c0.1,0,0.2-0.1,0.4-0.2c0.2-0.2,0.4-0.3,0.6-0.6c0.2-0.2,0.5-0.5,0.7-0.8c0.2-0.3,0.5-0.6,0.7-0.9h0.6
				v11.7L120.5,434.8z"/>
			<path class="st2" d="M167.2,460.3h-31.9v-0.5c0.9-0.1,1.7-0.4,2.4-0.7c0.7-0.3,1.4-0.7,1.9-1.3c0.2-0.2,0.3-0.5,0.4-0.9
				c0.1-0.4,0.2-0.9,0.3-1.4c0.1-0.5,0.1-1.1,0.2-1.6c0-0.6,0.1-1.1,0.1-1.7c0-0.5,0-1.1,0-2c0-0.8,0-1.7,0.1-2.7c0-1,0-2,0-3.1
				c0-1.1,0-2.1,0-3v-10.2c0-0.6,0-1.3,0-1.9c0-0.7-0.1-1.3-0.1-1.9c-0.1-0.6-0.1-1.1-0.3-1.6c-0.1-0.5-0.3-0.8-0.5-1
				c-0.5-0.6-1.1-0.9-1.7-1.1c-0.6-0.2-1.4-0.3-2.3-0.4v-0.5h28.8l3.5,8.6l-0.5,0.3c-2.8-3.5-5.5-5.9-7.9-7.1
				c-0.6-0.3-1.7-0.5-3.3-0.7c-1.6-0.2-3.5-0.3-5.8-0.3c-0.7,0-1.5,0-2.3,0.1c-0.8,0.1-1.3,0.1-1.7,0.2c-0.1,0.6-0.1,1.7-0.2,3.4
				c-0.1,1.7-0.1,3.8-0.1,6c0,1.3,0,2.4,0,3.3c0,0.9,0,1.6,0,2.2c0,0.6,0,1,0,1.3c0,0.3,0,0.5,0,0.6c0.2,0,0.5,0,1,0
				c0.5,0,1.1,0,1.8-0.1c0.7,0,1.4-0.1,2-0.1c0.7-0.1,1.2-0.1,1.7-0.2c1-0.2,1.9-0.6,2.6-1c0.7-0.4,1.3-0.9,1.7-1.5
				c0.4-0.6,0.8-1.3,1-2.1c0.3-0.8,0.5-1.7,0.7-2.6h0.6v16.4h-0.6c-0.3-1.1-0.7-2.3-1.3-3.4c-0.6-1.2-1.2-2.1-1.8-2.7
				c-0.6-0.5-1.2-0.9-2-1.2c-0.8-0.3-1.7-0.5-2.7-0.6c-0.5,0-1-0.1-1.3-0.1c-0.3,0-0.7,0-1,0c-0.3,0-0.7,0-1,0c-0.3,0-0.8,0-1.4,0
				c-0.1,0.5-0.1,1.2-0.1,2.1c0,0.9,0,1.9,0,2.9c0,0.5,0,1,0,1.6c0,0.6,0,1.2,0,1.8c0,0.6,0,1.1,0,1.6c0,0.5,0,0.9,0,1.3
				c0,1.1,0.1,2.2,0.2,3.2c0.1,1,0.3,1.7,0.6,2.2c0.3,0.5,1.1,0.8,2.2,1c1.2,0.2,2.5,0.3,3.9,0.3c0.6,0,1.3,0,2.3-0.1
				c0.9,0,1.9-0.1,2.9-0.3c1.1-0.1,2.1-0.4,3.1-0.8c0.9-0.4,1.8-1,2.7-1.7c0.9-0.7,1.7-1.6,2.5-2.7c0.8-1.1,1.7-2.3,2.5-3.8l0.6,0.2
				L167.2,460.3z"/>
			<path class="st2" d="M202.7,460.3v-0.5c0.1,0,0.4,0,0.8-0.1c0.4-0.1,0.8-0.2,1.3-0.4c0.4-0.2,0.8-0.4,1.1-0.7
				c0.3-0.3,0.5-0.7,0.5-1.2c0-0.3-0.1-0.8-0.3-1.5c-0.2-0.7-0.5-1.6-0.8-2.6c-0.3-1-0.7-2.2-1.2-3.4c-0.5-1.3-0.9-2.6-1.5-3.9
				h-13.9c-0.5,1.3-1,2.6-1.5,3.8c-0.5,1.2-1,2.4-1.5,3.6c-0.7,1.9-1.1,3.2-1.1,4c0,0.5,0.1,0.8,0.4,1.1c0.3,0.3,0.6,0.5,1.1,0.7
				c0.4,0.2,0.9,0.3,1.4,0.4c0.5,0.1,1,0.2,1.4,0.2v0.5h-11.1v-0.6c0.9-0.1,1.7-0.3,2.3-0.7c0.6-0.4,1-0.6,1.1-0.8
				c0.2-0.2,0.6-0.8,1.2-1.7c0.6-0.9,1.2-2.2,2-4c0.7-1.6,1.5-3.5,2.5-5.6c0.9-2.1,1.8-4.2,2.8-6.4c1-2.2,1.9-4.4,2.8-6.7
				c0.9-2.2,1.8-4.3,2.7-6.3l-0.5-1.1c0.6-0.3,1.2-0.6,1.7-1c0.5-0.4,0.9-0.8,1.3-1.2c0.4-0.4,0.7-0.8,1-1.2
				c0.3-0.4,0.5-0.7,0.6-0.9h0.4c1.1,2.9,2.1,5.6,3.1,8.2c1,2.6,1.9,5.1,2.8,7.5c0.9,2.4,1.7,4.7,2.6,7c0.8,2.2,1.7,4.5,2.5,6.6
				c0.4,1.1,0.7,2,1.1,2.7c0.3,0.7,0.7,1.5,1.1,2.4c0.1,0.1,0.2,0.4,0.5,0.7c0.2,0.3,0.6,0.7,1,1.1c0.4,0.4,0.9,0.7,1.5,1
				c0.6,0.3,1.3,0.4,2.1,0.5v0.6H202.7z M195.9,428.7c-0.2,0.5-0.5,1.2-0.9,2.1c-0.4,1-0.9,2.2-1.5,3.5c-0.6,1.4-1.2,3-2,4.7
				c-0.7,1.8-1.5,3.7-2.3,5.7h13c-0.6-1.6-1.2-3.1-1.8-4.7c-0.6-1.6-1.2-3.1-1.8-4.5c-0.6-1.4-1.1-2.8-1.6-4
				C196.6,430.4,196.2,429.5,195.9,428.7z"/>
			<path class="st2" d="M266.7,424.3c-0.8,0.5-1.4,1.2-1.8,2.2c-0.2,0.5-0.4,1.5-0.5,2.9c-0.1,1.4-0.1,2.9-0.2,4.5
				c-0.1,1.5-0.1,3.3-0.2,5.3c-0.1,2-0.1,4.2-0.1,6.5c0,1,0,2.1,0,3.3c0,1.2,0,2.5,0,3.7c0,1.3,0,2.5,0,3.8c0,1.3,0,2.4,0,3.4
				c0,0.1,0,0.3-0.1,0.3c-0.1,0.1-0.2,0.1-0.4,0.1c-0.3,0-0.6-0.2-0.9-0.5c-3-3.4-5.6-6.5-8.1-9.4c-2.4-2.8-4.8-5.6-7-8.2
				c-2.2-2.6-4.4-5.1-6.5-7.6c-2.1-2.5-4.4-5-6.7-7.7v22c0,1.8,0,3.4,0.1,4.8c0.1,1.4,0.3,2.5,0.7,3.2c0.4,0.8,1,1.4,1.8,1.8
				c0.8,0.4,1.9,0.7,3.4,0.9v0.5h-12.8v-0.5c0.8-0.1,1.7-0.3,2.5-0.7c0.8-0.3,1.5-0.9,2-1.6c0.5-0.7,0.8-1.8,0.9-3.2
				c0.1-1.4,0.2-3.1,0.3-5.1c0.1-1.5,0.1-3.3,0.2-5.3c0-2,0.1-4.2,0.1-6.5c0-1,0-1.8,0-2.5c0-0.7,0-1.3,0-1.9s0-1.3,0-1.9
				c0-0.7,0-1.5-0.1-2.6c-0.1-1-0.3-1.8-0.7-2.5c-0.4-0.6-0.8-1.1-1.4-1.5c-0.5-0.4-1.1-0.6-1.7-0.8c-0.6-0.2-1.2-0.3-1.7-0.3v-0.5
				h10.6l24.7,28.9v-17.7c0-1.4,0-2.7-0.1-4c0-1.3-0.2-2.3-0.5-3c-0.3-1-1-1.8-1.9-2.4c-0.9-0.6-2.2-1-3.8-1.3v-0.5h12.9v0.5
				C268.5,423.4,267.4,423.8,266.7,424.3z"/>
			<path class="st3" d="M340.1,449c-1,2.4-2.5,4.4-4.2,6.2c-1.8,1.7-3.9,3.1-6.3,4c-2.4,0.9-4.9,1.4-7.6,1.4c-2.6,0-5.1-0.5-7.5-1.4
				c-2.4-0.9-4.4-2.2-6.2-3.9c-1.8-1.7-3.2-3.7-4.2-6c-1-2.3-1.5-4.9-1.5-7.7c0-3,0.5-5.7,1.6-8.1c1.1-2.4,2.5-4.4,4.4-6
				c1.8-1.7,4-2.9,6.4-3.8c2.5-0.9,5-1.3,7.7-1.3c3,0,5.6,0.5,8,1.6c2.3,1,4.3,2.4,6,4.2c1.6,1.8,2.9,3.8,3.8,6.1
				c0.9,2.3,1.3,4.7,1.3,7.2C341.6,444,341.1,446.6,340.1,449z M334.3,434.9c-0.5-2.2-1.4-4.1-2.5-5.9c-1.1-1.8-2.5-3.2-4.1-4.3
				c-1.6-1.1-3.6-1.6-5.8-1.6c-2.3,0-4.2,0.5-5.9,1.6c-1.7,1.1-3,2.5-4.1,4.2c-1.1,1.7-1.8,3.7-2.3,5.9c-0.5,2.2-0.8,4.4-0.8,6.7
				c0,2.4,0.3,4.6,0.8,6.8c0.6,2.2,1.4,4.1,2.5,5.8c1.1,1.7,2.5,3,4.1,4c1.7,1,3.6,1.5,5.8,1.5c2.2,0,4.1-0.6,5.7-1.7
				c1.6-1.1,3-2.5,4-4.3c1.1-1.8,1.9-3.7,2.4-5.9c0.5-2.2,0.8-4.4,0.8-6.6C335.2,439.2,334.9,437.1,334.3,434.9z"/>
			<path class="st3" d="M354.9,460.3v-0.5c0.9-0.1,1.7-0.4,2.4-0.7c0.7-0.3,1.4-0.8,1.9-1.4c0.2-0.2,0.3-0.5,0.4-0.9
				c0.1-0.4,0.2-0.8,0.2-1.4c0.1-0.5,0.1-1.1,0.1-1.6c0-0.6,0-1.1,0-1.7c0-0.5,0-1.1,0-2c0-0.8,0-1.7,0.1-2.7c0-1,0-2,0-3.1
				c0-1.1,0-2.1,0-3v-10.2c0-0.6,0-1.3,0-1.9c0-0.6,0-1.2-0.1-1.7c-0.1-0.5-0.1-1-0.2-1.5c-0.1-0.4-0.3-0.8-0.5-1
				c-0.5-0.6-1.1-1-1.8-1.3c-0.7-0.3-1.5-0.4-2.4-0.5v-0.5h15.6v0.5c-0.7,0.1-1.5,0.3-2.3,0.6c-0.8,0.3-1.5,0.8-1.9,1.7
				c-0.3,0.6-0.5,1.3-0.5,2.2c0,0.9,0,1.8-0.1,2.6c0,0.9,0,1.7,0,2.6c0,0.9,0,1.7,0,2.6c0,0.9,0,1.8,0,2.7c0,0.9,0,1.9,0,3v11.8
				c0,1,0,2,0.1,2.9c0,0.9,0.2,1.6,0.5,2c0.4,0.6,1.1,1,2,1.4c0.9,0.3,1.7,0.5,2.5,0.6v0.5H354.9z"/>
			<path class="st3" d="M417.9,460.3h-33.5v-0.5c0.9-0.1,1.7-0.4,2.6-0.7c0.9-0.3,1.5-0.7,2-1.3c0.2-0.2,0.3-0.5,0.4-0.9
				c0.1-0.4,0.2-0.9,0.3-1.4c0.1-0.5,0.1-1.1,0.2-1.6c0.1-0.6,0.1-1.1,0.1-1.7c0-0.5,0-1.1,0-2c0-0.8,0-1.7,0.1-2.7c0-1,0-2,0-3.1
				c0-1.1,0-2.1,0-3v-10.1c0-0.6,0-1.2,0-1.8c0-0.6,0-1.2-0.1-1.7c-0.1-0.5-0.1-1-0.2-1.4c-0.1-0.4-0.3-0.7-0.5-1
				c-0.5-0.6-1.1-1-2-1.4c-0.8-0.3-1.7-0.5-2.6-0.6v-0.5h16.6v0.5c-0.5,0.1-1,0.2-1.6,0.3c-0.6,0.1-1.2,0.4-1.8,0.7
				c-0.6,0.3-1,0.8-1.4,1.3c-0.4,0.6-0.6,1.3-0.7,2.3c0,1.2-0.1,2.3-0.1,3.3c0,1,0,2-0.1,3c0,1,0,2,0,3c0,1,0,2.2,0,3.5
				c0,1.2,0,2.3,0,3.2c0,0.9,0,1.9,0,2.8c0,0.9,0,1.8,0,2.8c0,1,0,2,0,3.2c0,1.1,0.1,2.2,0.1,3.2c0.1,1,0.2,1.8,0.5,2.2
				c0.1,0.2,0.4,0.3,0.8,0.5c0.4,0.2,0.9,0.3,1.5,0.4c0.6,0.1,1.2,0.2,1.9,0.3c0.7,0.1,1.4,0.1,2.1,0.1c0.3,0,0.7,0,1.3,0
				c0.6,0,1.3-0.1,2-0.1c0.7-0.1,1.5-0.1,2.2-0.2c0.8-0.1,1.4-0.2,2-0.4c1.4-0.4,2.5-0.9,3.5-1.5c0.9-0.6,1.7-1.3,2.4-2.2
				c0.7-0.8,1.2-1.7,1.7-2.7c0.5-1,0.9-2,1.3-3l0.5,0.2L417.9,460.3z"/>
			<path class="st3" d="M463.6,431.8c-1.4-1.8-2.8-3.3-4.1-4.5c-1.3-1.3-2.5-2.2-3.8-2.8c-0.6-0.3-1.7-0.5-3.2-0.7
				c-1.5-0.2-3.3-0.3-5.4-0.3c-0.3,0-0.7,0-1.2,0c-0.5,0-0.9,0-1.3,0.1c-0.4,0-0.8,0-1.2,0.1c-0.4,0-0.6,0-0.8,0
				c0,0.2-0.1,0.4-0.1,0.6c-0.1,0.2-0.1,0.5-0.1,0.7c0,0.3-0.1,0.6-0.1,1.1c0,0.4-0.1,1-0.1,1.6c0,1.2-0.1,2.5-0.1,4
				c0,1.4,0,2.8,0,4.1c0,1.3,0,2.4,0,3.3c0,0.9,0,1.4,0,1.6c0.1,0,0.4,0,0.9,0c0.6,0,1.2,0,1.9-0.1c0.7,0,1.4-0.1,2.1-0.1
				c0.7-0.1,1.3-0.1,1.8-0.2c1.3-0.3,2.2-0.6,3-1.1c0.7-0.5,1.3-1,1.7-1.6c0.4-0.6,0.7-1.3,0.9-2.1c0.2-0.7,0.3-1.6,0.5-2.4h0.6
				v16.8h-0.6c-0.3-1.1-0.7-2.3-1.2-3.5c-0.5-1.2-1.1-2.2-1.9-2.8c-0.7-0.6-1.4-1-2.1-1.3c-0.7-0.3-1.6-0.5-2.6-0.5
				c-0.5,0-1-0.1-1.4-0.1c-0.4,0-0.7,0-1.1,0c-0.3,0-0.7,0-1.1,0c-0.4,0-0.9,0-1.4,0c0,1.1,0,2.2,0,3.3c0,1.1,0,2.1,0,3.1
				c0,1,0,1.9,0,2.7c0,0.8,0,1.5,0,2.1c0,1.1,0.1,2.2,0.2,3.2c0.1,1,0.3,1.7,0.6,2.2c0.3,0.5,0.8,0.9,1.6,1.1
				c0.7,0.3,1.8,0.4,3.3,0.5v0.5h-16.7v-0.5c0.9-0.1,1.7-0.4,2.4-0.7c0.7-0.3,1.4-0.7,1.9-1.3c0.2-0.2,0.3-0.5,0.4-0.9
				c0.1-0.4,0.2-0.9,0.3-1.4c0.1-0.5,0.1-1.1,0.2-1.6c0-0.6,0.1-1.1,0.1-1.7c0-0.5,0-1.1,0-2c0-0.8,0-1.7,0.1-2.7c0-1,0-2,0-3.1
				c0-1.1,0-2.1,0-3v-10.2c0-0.6,0-1.3,0-1.9c0-0.7-0.1-1.3-0.1-1.9c-0.1-0.6-0.1-1.1-0.3-1.6c-0.1-0.5-0.3-0.8-0.5-1
				c-0.5-0.6-1.1-0.9-1.7-1.1c-0.6-0.2-1.4-0.3-2.3-0.4v-0.5h29l3.5,8.8L463.6,431.8z"/>
			<path class="st3" d="M475,460.3v-0.5c0.9-0.1,1.7-0.4,2.4-0.7c0.7-0.3,1.4-0.8,1.9-1.4c0.2-0.2,0.3-0.5,0.4-0.9
				c0.1-0.4,0.2-0.8,0.2-1.4c0.1-0.5,0.1-1.1,0.1-1.6c0-0.6,0-1.1,0-1.7c0-0.5,0-1.1,0-2c0-0.8,0-1.7,0.1-2.7c0-1,0-2,0-3.1
				c0-1.1,0-2.1,0-3v-10.2c0-0.6,0-1.3,0-1.9c0-0.6,0-1.2-0.1-1.7c-0.1-0.5-0.1-1-0.2-1.5c-0.1-0.4-0.3-0.8-0.5-1
				c-0.5-0.6-1.1-1-1.8-1.3c-0.7-0.3-1.5-0.4-2.4-0.5v-0.5h15.6v0.5c-0.7,0.1-1.5,0.3-2.3,0.6c-0.8,0.3-1.5,0.8-1.9,1.7
				c-0.3,0.6-0.5,1.3-0.5,2.2c0,0.9,0,1.8-0.1,2.6c0,0.9,0,1.7,0,2.6c0,0.9,0,1.7,0,2.6c0,0.9,0,1.8,0,2.7c0,0.9,0,1.9,0,3v11.8
				c0,1,0,2,0.1,2.9c0,0.9,0.2,1.6,0.5,2c0.4,0.6,1.1,1,2,1.4c0.9,0.3,1.7,0.5,2.5,0.6v0.5H475z"/>
			<path class="st3" d="M536.8,460.3h-31.9v-0.5c0.9-0.1,1.7-0.4,2.4-0.7c0.7-0.3,1.4-0.7,1.9-1.3c0.2-0.2,0.3-0.5,0.4-0.9
				c0.1-0.4,0.2-0.9,0.3-1.4c0.1-0.5,0.1-1.1,0.2-1.6c0-0.6,0.1-1.1,0.1-1.7c0-0.5,0-1.1,0-2c0-0.8,0-1.7,0.1-2.7c0-1,0-2,0-3.1
				c0-1.1,0-2.1,0-3v-10.2c0-0.6,0-1.3,0-1.9c0-0.7-0.1-1.3-0.1-1.9c-0.1-0.6-0.1-1.1-0.3-1.6c-0.1-0.5-0.3-0.8-0.5-1
				c-0.5-0.6-1.1-0.9-1.7-1.1c-0.6-0.2-1.4-0.3-2.3-0.4v-0.5h28.8l3.5,8.6l-0.5,0.3c-2.8-3.5-5.5-5.9-7.9-7.1
				c-0.6-0.3-1.7-0.5-3.3-0.7c-1.6-0.2-3.5-0.3-5.8-0.3c-0.7,0-1.5,0-2.3,0.1c-0.8,0.1-1.3,0.1-1.7,0.2c-0.1,0.6-0.1,1.7-0.2,3.4
				c-0.1,1.7-0.1,3.8-0.1,6c0,1.3,0,2.4,0,3.3c0,0.9,0,1.6,0,2.2c0,0.6,0,1,0,1.3c0,0.3,0,0.5,0,0.6c0.2,0,0.5,0,1,0
				c0.5,0,1.1,0,1.8-0.1c0.7,0,1.4-0.1,2-0.1c0.7-0.1,1.2-0.1,1.7-0.2c1-0.2,1.9-0.6,2.6-1c0.7-0.4,1.3-0.9,1.7-1.5
				c0.4-0.6,0.8-1.3,1-2.1c0.3-0.8,0.5-1.7,0.7-2.6h0.6v16.4h-0.6c-0.3-1.1-0.7-2.3-1.3-3.4c-0.6-1.2-1.2-2.1-1.8-2.7
				c-0.6-0.5-1.2-0.9-2-1.2c-0.8-0.3-1.7-0.5-2.7-0.6c-0.5,0-1-0.1-1.3-0.1c-0.3,0-0.7,0-1,0c-0.3,0-0.7,0-1,0c-0.3,0-0.8,0-1.4,0
				c-0.1,0.5-0.1,1.2-0.1,2.1c0,0.9,0,1.9,0,2.9c0,0.5,0,1,0,1.6c0,0.6,0,1.2,0,1.8c0,0.6,0,1.1,0,1.6c0,0.5,0,0.9,0,1.3
				c0,1.1,0.1,2.2,0.2,3.2c0.1,1,0.3,1.7,0.6,2.2c0.3,0.5,1.1,0.8,2.2,1c1.2,0.2,2.5,0.3,3.9,0.3c0.6,0,1.3,0,2.3-0.1
				c0.9,0,1.9-0.1,2.9-0.3c1.1-0.1,2.1-0.4,3.1-0.8c0.9-0.4,1.8-1,2.7-1.7c0.9-0.7,1.7-1.6,2.5-2.7c0.8-1.1,1.7-2.3,2.5-3.8l0.6,0.2
				L536.8,460.3z"/>
			<path class="st3" d="M584.5,460.3H551v-0.5c0.9-0.1,1.7-0.4,2.6-0.7c0.9-0.3,1.5-0.7,2-1.3c0.2-0.2,0.3-0.5,0.4-0.9
				c0.1-0.4,0.2-0.9,0.3-1.4c0.1-0.5,0.1-1.1,0.2-1.6c0.1-0.6,0.1-1.1,0.1-1.7c0-0.5,0-1.1,0-2c0-0.8,0-1.7,0.1-2.7c0-1,0-2,0-3.1
				c0-1.1,0-2.1,0-3v-10.1c0-0.6,0-1.2,0-1.8c0-0.6,0-1.2-0.1-1.7c-0.1-0.5-0.1-1-0.2-1.4c-0.1-0.4-0.3-0.7-0.5-1
				c-0.5-0.6-1.1-1-2-1.4c-0.8-0.3-1.7-0.5-2.6-0.6v-0.5H568v0.5c-0.5,0.1-1,0.2-1.6,0.3c-0.6,0.1-1.2,0.4-1.8,0.7
				c-0.6,0.3-1,0.8-1.4,1.3c-0.4,0.6-0.6,1.3-0.7,2.3c0,1.2-0.1,2.3-0.1,3.3c0,1,0,2-0.1,3c0,1,0,2,0,3c0,1,0,2.2,0,3.5
				c0,1.2,0,2.3,0,3.2c0,0.9,0,1.9,0,2.8c0,0.9,0,1.8,0,2.8c0,1,0,2,0,3.2c0,1.1,0.1,2.2,0.1,3.2c0.1,1,0.2,1.8,0.5,2.2
				c0.1,0.2,0.4,0.3,0.8,0.5c0.4,0.2,0.9,0.3,1.5,0.4c0.6,0.1,1.2,0.2,1.9,0.3c0.7,0.1,1.4,0.1,2.1,0.1c0.3,0,0.7,0,1.3,0
				c0.6,0,1.3-0.1,2-0.1c0.7-0.1,1.5-0.1,2.2-0.2c0.8-0.1,1.4-0.2,2-0.4c1.4-0.4,2.5-0.9,3.5-1.5c0.9-0.6,1.7-1.3,2.4-2.2
				c0.7-0.8,1.2-1.7,1.7-2.7c0.5-1,0.9-2,1.3-3l0.5,0.2L584.5,460.3z"/>
			<path class="st3" d="M637.5,447.9c-0.6,2-1.5,3.7-2.6,5.1c-1.1,1.4-2.3,2.6-3.8,3.5c-1.4,0.9-2.9,1.7-4.5,2.2
				c-1.6,0.6-3.3,0.9-5,1.2c-1.7,0.2-3.4,0.3-5,0.3h-19v-0.5c0.9-0.1,1.7-0.3,2.5-0.7c0.8-0.3,1.4-0.8,1.9-1.3
				c0.2-0.2,0.3-0.5,0.4-0.9c0.1-0.4,0.2-0.9,0.2-1.4c0.1-0.5,0.1-1.1,0.2-1.7c0-0.6,0.1-1.2,0.1-1.7c0-0.5,0-1.1,0-2
				c0-0.8,0-1.7,0.1-2.7c0-1,0-2,0-3.1c0-1.1,0-2.1,0-3v-10.2c0-0.6,0-1.3,0-1.9c0-0.6,0-1.2-0.1-1.7c-0.1-0.5-0.1-1-0.2-1.5
				c-0.1-0.4-0.3-0.8-0.5-1c-0.5-0.6-1.1-1.1-1.9-1.3c-0.7-0.2-1.5-0.4-2.5-0.5v-0.5c1.5,0,3.6,0,6.3,0c2.7,0,6.1,0,10,0
				c1.1,0,2.2,0,3.3,0c1.1,0,2.3,0.1,3.4,0.2c1.1,0.1,2.3,0.3,3.4,0.5c1.1,0.2,2.3,0.6,3.4,1.1c1.5,0.6,2.8,1.4,4.1,2.4
				c1.3,1,2.4,2.1,3.4,3.5c1,1.3,1.7,2.9,2.3,4.6c0.6,1.8,0.9,3.8,0.9,6C638.4,443.6,638.1,445.9,637.5,447.9z M631,435.2
				c-0.6-1.9-1.5-3.6-2.6-5.2c-1.1-1.5-2.4-2.9-4-3.9c-1.5-1.1-3.2-1.8-5-2.1c-0.7-0.1-1.5-0.3-2.3-0.3c-0.8-0.1-1.9-0.1-3.1-0.1
				c-0.4,0-0.9,0-1.4,0c-0.5,0-1,0.1-1.4,0.1c-0.5,0.1-0.9,0.1-1.3,0.1c-0.4,0-0.7,0.1-1,0.2c-0.2,1.7-0.3,4-0.3,7
				c0,3-0.1,6.6-0.1,10.7c0,2.2,0,4.3,0,6.1c0,1.8,0,3.3,0.1,4.4c0,0.5,0,1,0.1,1.6c0.1,0.6,0.1,1.1,0.2,1.7c0.1,0.5,0.2,1,0.3,1.5
				c0.2,0.4,0.3,0.8,0.5,1c0.7,0.7,1.6,1.1,2.6,1.3c1.1,0.2,2.1,0.3,3,0.3c0.9,0,1.8,0,2.7-0.1c0.9-0.1,1.8-0.3,2.6-0.5
				c3.8-1.1,6.6-3.2,8.4-6.3c1.9-3.1,2.8-6.9,2.8-11.5C632,439.1,631.7,437.1,631,435.2z"/>
		</g>
		<g>
			<path class="st2" d="M546.1,404.4h-15.9v-0.3c0.4-0.1,0.8-0.2,1.2-0.3c0.4-0.2,0.7-0.4,0.9-0.7c0.1-0.1,0.2-0.3,0.2-0.5
				c0.1-0.2,0.1-0.4,0.1-0.7c0-0.3,0.1-0.5,0.1-0.8c0-0.3,0-0.6,0-0.8c0-0.2,0-0.6,0-1c0-0.4,0-0.9,0-1.4c0-0.5,0-1,0-1.5
				c0-0.5,0-1,0-1.5v-5.1c0-0.3,0-0.6,0-1c0-0.3,0-0.6-0.1-0.9c0-0.3-0.1-0.6-0.1-0.8c-0.1-0.2-0.1-0.4-0.2-0.5
				c-0.3-0.3-0.5-0.5-0.8-0.5c-0.3-0.1-0.7-0.2-1.1-0.2v-0.3h14.3l1.8,4.3l-0.3,0.1c-1.4-1.8-2.7-2.9-4-3.5
				c-0.3-0.1-0.8-0.3-1.6-0.4c-0.8-0.1-1.8-0.2-2.9-0.2c-0.4,0-0.7,0-1.1,0c-0.4,0-0.7,0.1-0.8,0.1c0,0.3-0.1,0.8-0.1,1.7
				c0,0.9,0,1.9,0,3c0,0.7,0,1.2,0,1.7c0,0.5,0,0.8,0,1.1c0,0.3,0,0.5,0,0.7c0,0.1,0,0.2,0,0.3c0.1,0,0.3,0,0.5,0c0.3,0,0.6,0,0.9,0
				c0.3,0,0.7,0,1-0.1c0.3,0,0.6-0.1,0.8-0.1c0.5-0.1,1-0.3,1.3-0.5c0.3-0.2,0.6-0.5,0.8-0.8c0.2-0.3,0.4-0.6,0.5-1
				c0.1-0.4,0.2-0.8,0.4-1.3h0.3v8.2H542c-0.1-0.6-0.4-1.1-0.6-1.7c-0.3-0.6-0.6-1-0.9-1.3c-0.3-0.2-0.6-0.4-1-0.6
				c-0.4-0.2-0.8-0.3-1.4-0.3c-0.3,0-0.5,0-0.6,0c-0.2,0-0.3,0-0.5,0c-0.2,0-0.3,0-0.5,0c-0.2,0-0.4,0-0.7,0c0,0.2-0.1,0.6-0.1,1.1
				c0,0.5,0,1,0,1.5c0,0.2,0,0.5,0,0.8c0,0.3,0,0.6,0,0.9c0,0.3,0,0.5,0,0.8c0,0.3,0,0.5,0,0.6c0,0.6,0,1.1,0.1,1.6
				c0,0.5,0.1,0.9,0.3,1.1s0.5,0.4,1.1,0.5c0.6,0.1,1.2,0.2,1.9,0.2c0.3,0,0.7,0,1.1,0c0.5,0,0.9-0.1,1.4-0.1
				c0.6-0.1,1.1-0.2,1.5-0.4c0.5-0.2,0.9-0.5,1.4-0.8c0.4-0.4,0.9-0.8,1.3-1.3c0.4-0.5,0.8-1.2,1.3-1.9l0.3,0.1L546.1,404.4z"/>
			<path class="st2" d="M561.6,401.5c-0.3,0.7-0.8,1.2-1.4,1.7c-0.6,0.5-1.3,0.8-2.1,1c-0.8,0.2-1.7,0.3-2.7,0.3
				c-0.8,0-1.6-0.1-2.2-0.2c-0.6-0.1-1.1-0.2-1.5-0.4c-0.4-0.1-0.7-0.3-0.9-0.4c-0.2-0.1-0.3-0.2-0.4-0.2c-0.1,0-0.2,0.1-0.3,0.3
				c-0.2,0.2-0.3,0.4-0.5,0.6h-0.2l-0.1-5.2h0.3c0.2,0.5,0.4,0.9,0.6,1.4c0.2,0.4,0.5,0.9,0.8,1.2c0.3,0.4,0.6,0.7,0.9,1
				c0.3,0.3,0.6,0.5,0.9,0.7c0.3,0.2,0.7,0.3,1.2,0.5c0.5,0.2,1,0.2,1.4,0.2c1.3,0,2.3-0.4,3.1-1.1c0.8-0.7,1.2-1.7,1.2-2.8
				c0-0.5-0.1-0.9-0.2-1.3c-0.2-0.4-0.4-0.7-0.6-0.9c-0.3-0.3-0.6-0.5-0.9-0.7c-0.4-0.2-0.8-0.4-1.2-0.5c-0.4-0.2-0.8-0.3-1.1-0.4
				c-0.3-0.1-0.6-0.2-0.9-0.3c-0.3-0.1-0.5-0.2-0.8-0.3c-0.3-0.1-0.6-0.2-1-0.4c-0.5-0.2-0.9-0.4-1.3-0.7c-0.4-0.3-0.8-0.7-1.1-1.1
				c-0.3-0.4-0.6-0.9-0.8-1.4c-0.2-0.5-0.3-1-0.3-1.6c0-0.9,0.2-1.7,0.5-2.4c0.3-0.7,0.8-1.2,1.4-1.7c0.6-0.5,1.2-0.8,2-1
				c0.8-0.2,1.5-0.3,2.4-0.3c0.8,0,1.4,0.1,2,0.2c0.6,0.1,1,0.3,1.4,0.4c0.4,0.2,0.6,0.3,0.8,0.4c0.2,0.1,0.3,0.2,0.3,0.2
				c0.1,0,0.2-0.1,0.3-0.3c0.2-0.2,0.3-0.4,0.5-0.6h0.3v4.8h-0.3c-0.2-0.6-0.5-1.1-0.8-1.7c-0.3-0.6-0.7-1.1-1.1-1.5
				c-0.4-0.4-0.9-0.8-1.5-1.1c-0.6-0.3-1.2-0.4-1.8-0.4c-0.5,0-1,0.1-1.5,0.2c-0.5,0.2-0.9,0.4-1.2,0.7c-0.4,0.3-0.6,0.7-0.8,1.2
				c-0.2,0.5-0.3,1-0.3,1.6c0,0.9,0.3,1.7,0.8,2.2c0.6,0.6,1.3,1,2.2,1.3c0.3,0.1,0.7,0.3,1,0.4c0.3,0.1,0.6,0.2,0.9,0.3
				c0.3,0.1,0.6,0.2,0.9,0.3c0.3,0.1,0.6,0.2,0.9,0.3c1.2,0.4,2.1,1.1,2.7,1.9c0.6,0.8,1,1.8,1,3.1
				C562.1,400.1,561.9,400.8,561.6,401.5z"/>
			<path class="st2" d="M582.6,390.6c-0.1-0.3-0.3-0.6-0.5-1c-0.2-0.3-0.4-0.7-0.6-0.9c-0.2-0.3-0.4-0.6-0.6-0.8
				c-0.2-0.3-0.4-0.4-0.5-0.6c-0.4-0.3-0.8-0.6-1.2-0.7c-0.4-0.1-1-0.2-1.6-0.2c-0.3,0-0.6,0-0.9,0c-0.2,0-0.5,0-0.7,0
				c-0.2,0-0.5,0-0.8,0c-0.3,0-0.6,0-1,0c0,0.4,0,1,0,1.8c0,0.7,0,1.5,0,2.3c0,0.8,0,1.6,0,2.4c0,0.8,0,1.4,0,2v5.8c0,0.5,0,1,0,1.4
				c0,0.5,0.1,0.8,0.2,1c0.3,0.4,0.6,0.6,1.1,0.8c0.5,0.1,0.9,0.2,1.3,0.3v0.3h-8.4v-0.3c0.5-0.1,0.9-0.1,1.3-0.3
				c0.4-0.1,0.8-0.4,1.2-0.9c0.1-0.1,0.2-0.2,0.2-0.4s0.1-0.4,0.1-0.7c0-0.3,0-0.5,0.1-0.8c0-0.3,0-0.6,0-0.9c0-0.2,0-0.6,0-1
				c0-0.4,0-0.8,0-1.3c0-0.5,0-1,0-1.5c0-0.5,0-1,0-1.5v-8.6c-0.4,0-0.7,0-1,0c-0.3,0-0.5,0-0.8,0c-0.2,0-0.5,0-0.7,0
				c-0.3,0-0.5,0-0.9,0c-0.7,0-1.2,0.1-1.6,0.2c-0.4,0.1-0.8,0.4-1.2,0.7c-0.1,0.1-0.3,0.3-0.5,0.5c-0.2,0.2-0.4,0.5-0.6,0.8
				c-0.2,0.3-0.4,0.6-0.6,0.9s-0.3,0.6-0.4,1l-0.2-0.1l0.8-4.9c0.4,0.1,0.8,0.2,1.1,0.2c0.3,0.1,0.8,0.1,1.5,0.1c0.7,0,1.2,0,1.8,0
				c0.5,0,1,0,1.5,0c0.5,0,1,0,1.5,0c0.5,0,1.1,0,1.7,0c0.6,0,1.2,0,1.7,0c0.5,0,1,0,1.5,0c0.5,0,1,0,1.5,0c0.5,0,1.1,0,1.8,0
				c0.6,0,1-0.1,1.4-0.1c0.4-0.1,0.8-0.2,1.2-0.3l0.8,5.1L582.6,390.6z"/>
			<path class="st2" d="M586.8,404c-0.3,0.3-0.6,0.4-1.1,0.4c-0.5,0-0.8-0.1-1.1-0.4c-0.3-0.3-0.4-0.6-0.4-1.1
				c0-0.5,0.1-0.8,0.4-1.1c0.3-0.3,0.7-0.5,1.1-0.5c0.5,0,0.8,0.2,1.1,0.5c0.3,0.3,0.4,0.7,0.4,1.2C587.2,403.4,587,403.8,586.8,404
				z"/>
			<path class="st2" d="M595.3,404.4v-0.3c0.2,0,0.5,0,0.7-0.1c0.2-0.1,0.4-0.1,0.6-0.2c0.2-0.1,0.3-0.2,0.5-0.4
				c0.1-0.1,0.2-0.3,0.2-0.5v-9.5c0-0.2-0.1-0.4-0.2-0.5c-0.1-0.1-0.3-0.3-0.5-0.3c-0.2-0.1-0.4-0.2-0.7-0.2c-0.2,0-0.5-0.1-0.7-0.1
				v-0.3h6.3v0.3c-0.2,0-0.5,0-0.7,0.1c-0.2,0-0.5,0.1-0.7,0.2c-0.2,0.1-0.4,0.2-0.5,0.4c-0.1,0.1-0.2,0.3-0.2,0.5v9.5
				c0,0.2,0.1,0.4,0.2,0.5c0.1,0.1,0.3,0.3,0.5,0.3c0.2,0.1,0.4,0.1,0.7,0.2c0.2,0,0.5,0.1,0.7,0.1v0.3H595.3z"/>
			<path class="st2" d="M614,402.9c-0.7,1.4-1.6,2.6-2.7,3.7c-1.1,1.1-2.3,2-3.7,2.8c-1.3,0.8-2.6,1.3-3.9,1.6l-0.2-0.4
				c0.7-0.3,1.4-0.7,2.1-1.1c0.7-0.4,1.4-0.9,2-1.5c0.6-0.6,1.2-1.3,1.8-2.1c0.6-0.8,1.1-1.7,1.5-2.7c-0.4,0.1-0.7,0.2-1.1,0.3
				c-0.4,0-0.7,0.1-1.1,0.1c-0.9,0-1.7-0.1-2.4-0.4c-0.7-0.3-1.3-0.7-1.8-1.2c-0.5-0.5-0.9-1.1-1.1-1.8c-0.3-0.7-0.4-1.4-0.4-2.2
				c0-0.8,0.2-1.6,0.5-2.3c0.3-0.7,0.7-1.4,1.2-1.9c0.5-0.6,1.2-1,1.9-1.3c0.7-0.3,1.5-0.5,2.3-0.5c0.8,0,1.6,0.2,2.4,0.5
				c0.7,0.4,1.4,0.8,1.9,1.4c0.5,0.6,1,1.3,1.3,2.1c0.3,0.8,0.5,1.6,0.5,2.5C615.1,400,614.7,401.5,614,402.9z M612.4,395.7
				c-0.1-0.6-0.4-1.2-0.7-1.7c-0.3-0.5-0.7-0.9-1.1-1.2c-0.5-0.3-1-0.5-1.6-0.5c-1.1,0-2,0.4-2.7,1.2c-0.7,0.8-1,1.9-1,3.3
				c0,0.7,0.1,1.4,0.2,2.2c0.2,0.7,0.4,1.4,0.8,2c0.3,0.6,0.8,1.1,1.3,1.5c0.5,0.4,1.1,0.6,1.8,0.6c0.4,0,0.7,0,1-0.1
				c0.3-0.1,0.5-0.3,0.8-0.5c0.6-0.7,0.9-1.5,1.1-2.3c0.2-0.8,0.3-1.6,0.3-2.5C612.7,397,612.6,396.3,612.4,395.7z"/>
			<path class="st2" d="M627.1,401.4c-0.3,0.6-0.7,1.2-1.2,1.6c-0.5,0.5-1.1,0.8-1.8,1.1c-0.7,0.2-1.4,0.4-2.2,0.4
				c-0.6,0-1.2-0.1-1.8-0.3c-0.6-0.2-1.2-0.5-1.7-0.8c-0.5-0.4-0.9-0.8-1.2-1.4c-0.3-0.5-0.5-1.1-0.5-1.8c0-0.5,0.1-1,0.3-1.5
				c0.2-0.5,0.5-0.9,0.9-1.3c0.4-0.4,0.8-0.7,1.2-1.1s0.9-0.6,1.3-0.9c-0.5-0.3-0.9-0.6-1.3-1c-0.4-0.3-0.8-0.7-1.1-1.1
				c-0.3-0.4-0.6-0.9-0.8-1.4c-0.2-0.5-0.3-1.1-0.3-1.7c0-0.7,0.1-1.3,0.4-1.9c0.3-0.6,0.7-1.1,1.2-1.5c0.5-0.4,1-0.8,1.7-1
				c0.6-0.3,1.3-0.4,1.9-0.4c0.8,0,1.5,0.1,2.2,0.3c0.6,0.2,1.2,0.5,1.6,0.9c0.4,0.4,0.8,0.8,1,1.3c0.2,0.5,0.4,1,0.4,1.6
				c0,0.5-0.1,1-0.3,1.4c-0.2,0.4-0.5,0.9-0.9,1.2c-0.4,0.4-0.8,0.8-1.3,1.1c-0.5,0.3-1,0.7-1.5,1c0.4,0.2,0.8,0.5,1.3,0.7
				c0.5,0.3,0.9,0.6,1.4,1.1c0.4,0.4,0.8,0.9,1.1,1.4c0.3,0.5,0.5,1.2,0.5,1.8C627.5,400.1,627.4,400.8,627.1,401.4z M625.1,399.2
				c-0.2-0.5-0.5-0.9-0.9-1.3c-0.4-0.4-0.9-0.8-1.4-1.1c-0.6-0.3-1.2-0.7-1.9-1c-0.4,0.2-0.7,0.5-1,0.9c-0.3,0.4-0.5,0.7-0.7,1.1
				c-0.2,0.4-0.3,0.8-0.4,1.2c-0.1,0.4-0.1,0.8-0.1,1.2c0,1.2,0.3,2.2,1,2.9c0.7,0.7,1.6,1,2.7,1c0.6,0,1.1-0.1,1.5-0.3
				c0.4-0.2,0.7-0.5,1-0.8c0.2-0.3,0.4-0.7,0.5-1.1c0.1-0.4,0.2-0.8,0.2-1.2C625.4,400.2,625.3,399.7,625.1,399.2z M625.3,388.2
				c-0.1-0.4-0.4-0.8-0.6-1.2c-0.3-0.3-0.6-0.6-1.1-0.8c-0.4-0.2-0.9-0.3-1.4-0.3c-0.4,0-0.8,0.1-1.2,0.2c-0.4,0.1-0.8,0.3-1.1,0.6
				s-0.6,0.6-0.7,1c-0.2,0.4-0.3,0.8-0.3,1.3c0,0.7,0.1,1.3,0.4,1.8c0.3,0.5,0.6,1,1,1.4c0.4,0.4,0.9,0.8,1.3,1.1
				c0.5,0.3,0.9,0.6,1.3,0.8c0.9-0.5,1.5-1.1,2-1.9c0.4-0.7,0.6-1.6,0.6-2.7C625.5,389.1,625.4,388.6,625.3,388.2z"/>
			<path class="st2" d="M637.9,392.5c-0.2,0.6-0.4,1.3-0.6,2.1h-6.2l-0.4,4.8c0.3-0.1,0.6-0.1,0.9-0.1c0.3,0,0.6,0,0.9,0
				c0.9,0,1.8,0.1,2.5,0.4c0.7,0.3,1.3,0.7,1.8,1.1c0.5,0.5,0.8,1,1.1,1.7c0.2,0.6,0.4,1.3,0.4,2c0,0.9-0.2,1.8-0.6,2.6
				c-0.4,0.8-0.9,1.5-1.4,2c-0.6,0.6-1.2,1-2,1.3c-0.7,0.3-1.4,0.5-2.1,0.5c-0.4,0-0.9,0-1.3-0.1c-0.4-0.1-0.8-0.2-1.1-0.4
				c-0.3-0.2-0.6-0.4-0.8-0.7c-0.2-0.3-0.3-0.6-0.3-1c0-0.3,0.1-0.5,0.3-0.7c0.2-0.2,0.4-0.3,0.7-0.3c0.4,0,0.7,0.1,0.9,0.4
				c0.2,0.3,0.4,0.6,0.6,0.9c0.2,0.3,0.4,0.6,0.7,0.9c0.3,0.3,0.7,0.4,1.3,0.4c0.6,0,1.1-0.1,1.5-0.4c0.4-0.3,0.7-0.6,1-1.1
				c0.3-0.4,0.5-0.9,0.6-1.5c0.1-0.6,0.2-1.1,0.2-1.7c0-0.8-0.1-1.4-0.3-1.9c-0.2-0.5-0.5-0.9-0.8-1.2c-0.3-0.3-0.7-0.5-1.1-0.7
				c-0.4-0.1-0.8-0.2-1.2-0.2c-0.4,0-0.7,0-1,0.1c-0.3,0.1-0.5,0.2-0.7,0.3c-0.2,0.1-0.4,0.3-0.5,0.5c-0.1,0.2-0.3,0.5-0.4,0.8
				l-0.3-0.1l1.1-11.2h5.5c0.6,0,1-0.1,1.1-0.3c0.2-0.2,0.4-0.5,0.5-0.8l0.3,0.1C638.3,391.4,638.1,391.9,637.9,392.5z"/>
		</g>
		<g>
			<path class="st2" d="M33,502.8v-0.3c0.5-0.1,0.9-0.2,1.3-0.4c0.4-0.2,0.7-0.4,1-0.7c0.1-0.1,0.2-0.3,0.2-0.5
				c0-0.2,0.1-0.5,0.1-0.7c0-0.3,0-0.6,0.1-0.9c0-0.3,0-0.6,0-0.9c0-0.3,0-0.6,0-1.1c0-0.5,0-0.9,0-1.5c0-0.5,0-1.1,0-1.7
				c0-0.6,0-1.1,0-1.6V487c0-0.3,0-0.7,0-1c0-0.3,0-0.7,0-0.9c0-0.3-0.1-0.6-0.1-0.8c-0.1-0.2-0.1-0.4-0.3-0.6
				c-0.3-0.3-0.6-0.6-1-0.7c-0.4-0.1-0.8-0.2-1.3-0.3v-0.3h8.5v0.3c-0.4,0.1-0.8,0.2-1.3,0.3c-0.5,0.2-0.8,0.5-1,0.9
				c-0.2,0.3-0.3,0.7-0.3,1.2c0,0.5,0,1,0,1.4c0,0.5,0,0.9,0,1.4c0,0.5,0,0.9,0,1.4c0,0.5,0,1,0,1.5c0,0.5,0,1,0,1.6v6.4
				c0,0.5,0,1.1,0,1.6c0,0.5,0.1,0.9,0.3,1.1c0.2,0.3,0.6,0.6,1.1,0.7c0.5,0.2,0.9,0.3,1.3,0.3v0.3H33z"/>
			<path class="st2" d="M76.5,483.2c-0.4,0.3-0.7,0.7-1,1.2c-0.1,0.3-0.2,0.8-0.3,1.6c0,0.8-0.1,1.6-0.1,2.4c0,0.8-0.1,1.8-0.1,2.9
				c0,1.1,0,2.3,0,3.5c0,0.5,0,1.1,0,1.8c0,0.7,0,1.3,0,2c0,0.7,0,1.4,0,2.1c0,0.7,0,1.3,0,1.8c0,0.1,0,0.1-0.1,0.2
				c0,0-0.1,0.1-0.2,0.1c-0.2,0-0.3-0.1-0.5-0.3c-1.6-1.8-3.1-3.5-4.4-5.1c-1.3-1.5-2.6-3-3.8-4.4c-1.2-1.4-2.4-2.8-3.5-4.1
				c-1.2-1.3-2.4-2.7-3.6-4.2v11.9c0,1,0,1.8,0.1,2.6c0,0.8,0.2,1.3,0.4,1.7c0.2,0.4,0.5,0.8,1,1c0.4,0.2,1.1,0.4,1.8,0.5v0.3h-7
				v-0.3c0.5-0.1,0.9-0.2,1.4-0.4c0.5-0.2,0.8-0.5,1.1-0.9c0.3-0.4,0.4-1,0.5-1.8c0.1-0.8,0.1-1.7,0.2-2.8c0-0.8,0.1-1.8,0.1-2.9
				c0-1.1,0-2.3,0-3.5c0-0.5,0-1,0-1.4c0-0.4,0-0.7,0-1c0-0.3,0-0.7,0-1c0-0.4,0-0.8,0-1.4c-0.1-0.5-0.2-1-0.4-1.3
				c-0.2-0.3-0.5-0.6-0.7-0.8c-0.3-0.2-0.6-0.3-0.9-0.4s-0.6-0.1-0.9-0.2v-0.3h5.7l13.4,15.7v-9.6c0-0.8,0-1.5,0-2.2
				c0-0.7-0.1-1.2-0.3-1.6c-0.2-0.5-0.5-1-1-1.3c-0.5-0.3-1.2-0.6-2.1-0.7v-0.3h7v0.3C77.5,482.8,76.9,483,76.5,483.2z"/>
			<path class="st2" d="M111.3,487.7c-0.2-0.3-0.3-0.7-0.5-1.1c-0.2-0.4-0.4-0.7-0.6-1c-0.2-0.3-0.4-0.6-0.6-0.9
				c-0.2-0.3-0.4-0.5-0.5-0.6c-0.4-0.4-0.8-0.6-1.3-0.7c-0.5-0.1-1.1-0.2-1.8-0.2c-0.4,0-0.7,0-0.9,0c-0.3,0-0.5,0-0.8,0
				c-0.2,0-0.5,0-0.8,0c-0.3,0-0.6,0-1,0c0,0.5,0,1.1,0,1.9c0,0.8,0,1.7,0,2.5c0,0.9,0,1.8,0,2.6c0,0.8,0,1.6,0,2.1v6.3
				c0,0.5,0,1.1,0,1.6c0,0.5,0.1,0.9,0.3,1.1c0.3,0.4,0.7,0.7,1.2,0.8c0.5,0.2,1,0.3,1.4,0.3v0.3H96v-0.3c0.5-0.1,1-0.2,1.4-0.3
				c0.5-0.1,0.9-0.4,1.3-0.9c0.1-0.1,0.2-0.2,0.2-0.5c0-0.2,0.1-0.5,0.1-0.7c0-0.3,0-0.6,0.1-0.9c0-0.3,0-0.6,0-0.9c0-0.3,0-0.6,0-1
				c0-0.4,0-0.9,0-1.4c0-0.5,0-1.1,0-1.6c0-0.6,0-1.1,0-1.6v-9.4c-0.4,0-0.7,0-1,0c-0.3,0-0.6,0-0.8,0c-0.2,0-0.5,0-0.8,0
				c-0.3,0-0.6,0-0.9,0c-0.7,0-1.3,0.1-1.8,0.3c-0.5,0.2-0.9,0.4-1.3,0.8c-0.2,0.1-0.3,0.3-0.5,0.6c-0.2,0.3-0.4,0.6-0.6,0.9
				c-0.2,0.3-0.4,0.6-0.6,1c-0.2,0.4-0.4,0.7-0.5,1l-0.3-0.1l0.8-5.4c0.4,0.1,0.8,0.2,1.2,0.2c0.4,0.1,0.9,0.1,1.6,0.1
				c0.7,0,1.4,0,1.9,0c0.6,0,1.1,0,1.6,0c0.5,0,1.1,0,1.6,0c0.6,0,1.2,0,1.9,0c0.7,0,1.3,0,1.9,0c0.6,0,1.1,0,1.6,0
				c0.5,0,1.1,0,1.6,0c0.6,0,1.2,0,1.9,0c0.6,0,1.1-0.1,1.5-0.2c0.4-0.1,0.8-0.2,1.3-0.3l0.9,5.5L111.3,487.7z"/>
			<path class="st2" d="M140.9,502.8h-17.3v-0.3c0.5-0.1,0.9-0.2,1.3-0.4c0.4-0.2,0.7-0.4,1-0.7c0.1-0.1,0.2-0.3,0.2-0.5
				c0.1-0.2,0.1-0.5,0.2-0.7c0-0.3,0.1-0.6,0.1-0.9c0-0.3,0-0.6,0-0.9c0-0.3,0-0.6,0-1.1c0-0.5,0-0.9,0-1.5c0-0.5,0-1.1,0-1.7
				c0-0.6,0-1.1,0-1.6V487c0-0.3,0-0.7,0-1c0-0.4,0-0.7-0.1-1c0-0.3-0.1-0.6-0.1-0.9c-0.1-0.3-0.2-0.4-0.3-0.6
				c-0.3-0.3-0.6-0.5-0.9-0.6c-0.3-0.1-0.7-0.2-1.2-0.2v-0.3h15.6l1.9,4.7l-0.3,0.1c-1.5-1.9-3-3.2-4.3-3.8
				c-0.3-0.2-0.9-0.3-1.8-0.4c-0.9-0.1-1.9-0.2-3.2-0.2c-0.4,0-0.8,0-1.2,0c-0.4,0-0.7,0.1-0.9,0.1c0,0.3-0.1,0.9-0.1,1.9
				c0,0.9,0,2,0,3.3c0,0.7,0,1.3,0,1.8c0,0.5,0,0.9,0,1.2c0,0.3,0,0.6,0,0.7c0,0.2,0,0.3,0,0.3c0.1,0,0.3,0,0.6,0c0.3,0,0.6,0,1,0
				c0.4,0,0.7,0,1.1-0.1c0.4,0,0.7-0.1,0.9-0.1c0.6-0.1,1-0.3,1.4-0.5c0.4-0.2,0.7-0.5,0.9-0.8c0.2-0.3,0.4-0.7,0.6-1.1
				c0.1-0.4,0.3-0.9,0.4-1.4h0.3v8.9h-0.3c-0.2-0.6-0.4-1.2-0.7-1.9c-0.3-0.6-0.6-1.1-1-1.4c-0.3-0.3-0.7-0.5-1.1-0.7
				c-0.4-0.2-0.9-0.3-1.5-0.3c-0.3,0-0.5,0-0.7,0c-0.2,0-0.4,0-0.6,0c-0.2,0-0.4,0-0.6,0c-0.2,0-0.4,0-0.7,0c0,0.3-0.1,0.7-0.1,1.2
				c0,0.5,0,1,0,1.6c0,0.2,0,0.5,0,0.8c0,0.3,0,0.6,0,1c0,0.3,0,0.6,0,0.9c0,0.3,0,0.5,0,0.7c0,0.6,0.1,1.2,0.1,1.7
				c0,0.5,0.2,0.9,0.3,1.2c0.2,0.3,0.6,0.5,1.2,0.6c0.6,0.1,1.3,0.2,2.1,0.2c0.3,0,0.7,0,1.2,0c0.5,0,1-0.1,1.6-0.1
				c0.6-0.1,1.2-0.2,1.7-0.4c0.5-0.2,1-0.5,1.5-0.9c0.5-0.4,0.9-0.9,1.4-1.5c0.4-0.6,0.9-1.3,1.4-2.1l0.3,0.1L140.9,502.8z"/>
			<path class="st2" d="M175.2,493.6c-0.4,0.1-0.7,0.3-0.8,0.6c-0.1,0.2-0.2,0.5-0.2,1c0,0.4,0,0.9,0,1.3v4.1
				c-0.1,0.1-0.5,0.3-1,0.6c-0.5,0.3-1.2,0.5-1.9,0.8c-0.7,0.3-1.6,0.5-2.5,0.7c-0.9,0.2-1.8,0.3-2.7,0.3c-1.8,0-3.4-0.2-4.8-0.7
				c-1.4-0.5-2.6-1.1-3.6-2c-1-0.9-1.7-2-2.2-3.3c-0.5-1.3-0.8-2.7-0.8-4.3c0-0.5,0-1,0.1-1.6c0.1-0.6,0.3-1.3,0.5-1.9
				c0.2-0.7,0.6-1.4,1-2.1c0.4-0.7,1-1.4,1.6-2c0.9-0.9,2-1.6,3.3-2.1c1.3-0.5,2.9-0.8,4.8-0.8c1.1,0,2.1,0.1,3,0.3
				c0.9,0.2,1.6,0.4,2.2,0.7c0.6,0.2,1.1,0.5,1.4,0.7c0.3,0.2,0.5,0.3,0.5,0.3s0.1-0.1,0.3-0.3c0.2-0.2,0.4-0.5,0.6-0.8h0.3v6.2H174
				c-0.2-0.8-0.5-1.6-0.9-2.4c-0.4-0.8-0.9-1.4-1.3-1.9c-0.6-0.6-1.4-1.2-2.3-1.6c-0.9-0.4-2-0.6-3.2-0.6c-1.2,0-2.4,0.3-3.4,0.8
				c-1,0.6-1.8,1.3-2.5,2.2c-0.7,0.9-1.2,2-1.6,3.2c-0.4,1.2-0.6,2.5-0.6,3.8c0,1.5,0.2,2.8,0.5,4c0.4,1.2,0.9,2.3,1.6,3.1
				c0.7,0.9,1.5,1.5,2.5,2c1,0.5,2.1,0.7,3.4,0.7c0.9,0,1.7-0.2,2.5-0.5c0.8-0.3,1.4-0.8,1.9-1.5c0.2-0.2,0.3-0.7,0.3-1.3
				c0.1-0.6,0.1-1.3,0.1-1.9c0-0.7,0-1.3-0.1-1.8c-0.1-0.5-0.3-1-0.6-1.3c-0.4-0.5-1.2-0.8-2.3-0.9v-0.3h8.3v0.3
				C175.9,493.4,175.6,493.5,175.2,493.6z"/>
			<path class="st2" d="M205.3,502.8c-0.2-0.2-0.3-0.3-0.4-0.4c-0.1-0.1-0.2-0.2-0.3-0.3c-0.1-0.1-0.2-0.3-0.4-0.5
				c-0.1-0.2-0.4-0.5-0.7-1c-0.4-0.5-0.7-1-0.9-1.4c-0.3-0.4-0.6-0.8-0.8-1.3c-0.3-0.4-0.6-0.8-0.9-1.3c-0.3-0.4-0.7-0.9-1.2-1.4
				c-0.4-0.4-0.8-0.8-1.2-1.2c-0.4-0.4-0.9-0.6-1.4-0.7c-0.4-0.1-0.6-0.1-0.8-0.1c-0.2,0-0.4,0-0.7,0c0,1.2,0,2.3,0,3.2
				c0,0.9,0,1.7,0,2.3c0,0.6,0,1.1,0.1,1.6c0,0.4,0.1,0.8,0.3,1.1c0.2,0.2,0.4,0.5,0.9,0.7c0.4,0.3,1,0.4,1.8,0.4v0.3h-9v-0.3
				c0.5-0.1,0.9-0.2,1.4-0.3c0.4-0.2,0.8-0.4,1-0.7c0.1-0.1,0.2-0.3,0.2-0.5c0.1-0.2,0.1-0.5,0.1-0.8c0-0.3,0.1-0.6,0.1-0.9
				c0-0.3,0-0.6,0-0.9c0-0.3,0-0.6,0-1.1c0-0.5,0-0.9,0-1.5c0-0.5,0-1.1,0-1.7c0-0.6,0-1.1,0-1.6V487c0-0.3,0-0.7,0-1
				c0-0.3,0-0.7-0.1-1c0-0.3-0.1-0.6-0.1-0.8c-0.1-0.3-0.2-0.4-0.3-0.6c-0.3-0.3-0.6-0.5-0.9-0.6c-0.3-0.1-0.8-0.2-1.3-0.3v-0.3
				c0.2,0,0.5,0,1.2,0c0.6,0,1.4,0,2.2,0c0.8,0,1.6,0,2.4,0c0.8,0,1.5,0,2,0c1.3,0,2.4,0,3.4,0.1c1,0.1,1.9,0.3,2.7,0.8
				c0.8,0.4,1.5,1,2,1.8c0.5,0.7,0.8,1.7,0.8,2.8c0,0.7-0.1,1.3-0.4,1.9c-0.3,0.6-0.6,1-1,1.5c-0.4,0.4-0.9,0.8-1.5,1.1
				c-0.6,0.3-1.2,0.6-1.8,0.8v0.1c0.3,0.2,0.6,0.4,0.9,0.7c0.3,0.3,0.6,0.7,0.9,1.1c0.5,0.7,1,1.5,1.6,2.3c0.6,0.8,1.1,1.6,1.5,2.2
				c0.7,1,1.4,1.7,2,2.1c0.7,0.5,1.4,0.7,2.3,0.9v0.3H205.3z M202.5,485.1c-0.5-0.7-1.2-1.3-2.1-1.8c-0.5-0.2-0.9-0.4-1.4-0.5
				c-0.5-0.1-1-0.1-1.6-0.1c-0.4,0-0.7,0-1,0c-0.2,0-0.4,0-0.6,0.1c0,0.1,0,0.2-0.1,0.3c0,0.1,0,0.2,0,0.3c0,0.1,0,0.3,0,0.6
				c0,0.2,0,0.6,0,1c0,0.7,0,1.4,0,2.2c0,0.8,0,1.6,0,2.4c0,0.8,0,1.5,0,2c0,0.6,0,0.9,0,1.1c0.8,0,1.5,0,2.2-0.1
				c0.7-0.1,1.3-0.2,1.9-0.4c0.6-0.2,1.1-0.4,1.6-0.8c0.4-0.3,0.8-0.7,1.1-1.1c0.3-0.4,0.5-0.8,0.6-1.3c0.1-0.5,0.2-1,0.2-1.5
				C203.2,486.7,202.9,485.9,202.5,485.1z"/>
			<path class="st2" d="M234,502.8v-0.3c0.1,0,0.2,0,0.4-0.1s0.4-0.1,0.7-0.2c0.2-0.1,0.4-0.2,0.6-0.4c0.2-0.2,0.3-0.4,0.3-0.7
				c0-0.2-0.1-0.4-0.2-0.8c-0.1-0.4-0.3-0.9-0.4-1.4c-0.2-0.6-0.4-1.2-0.7-1.9c-0.2-0.7-0.5-1.4-0.8-2.1h-7.5
				c-0.3,0.7-0.6,1.4-0.8,2.1c-0.3,0.7-0.5,1.3-0.8,2c-0.4,1-0.6,1.7-0.6,2.1c0,0.2,0.1,0.4,0.2,0.6c0.2,0.2,0.3,0.3,0.6,0.4
				c0.2,0.1,0.5,0.2,0.8,0.2c0.3,0,0.5,0.1,0.8,0.1v0.3h-6v-0.3c0.5-0.1,0.9-0.2,1.3-0.4c0.3-0.2,0.6-0.3,0.6-0.4
				c0.1-0.1,0.3-0.4,0.7-0.9c0.3-0.5,0.7-1.2,1.1-2.2c0.4-0.9,0.8-1.9,1.3-3c0.5-1.1,1-2.3,1.5-3.5c0.5-1.2,1-2.4,1.5-3.6
				c0.5-1.2,1-2.4,1.4-3.4l-0.3-0.6c0.3-0.2,0.6-0.3,0.9-0.5c0.3-0.2,0.5-0.4,0.7-0.7c0.2-0.2,0.4-0.4,0.5-0.7
				c0.1-0.2,0.2-0.4,0.3-0.5h0.2c0.6,1.6,1.1,3,1.7,4.5c0.5,1.4,1,2.8,1.5,4.1c0.5,1.3,0.9,2.6,1.4,3.8c0.5,1.2,0.9,2.4,1.4,3.6
				c0.2,0.6,0.4,1.1,0.6,1.5c0.2,0.4,0.4,0.8,0.6,1.3c0,0.1,0.1,0.2,0.3,0.4c0.1,0.2,0.3,0.4,0.5,0.6c0.2,0.2,0.5,0.4,0.8,0.5
				c0.3,0.2,0.7,0.2,1.1,0.3v0.3H234z M230.2,485.6c-0.1,0.2-0.3,0.6-0.5,1.2c-0.2,0.5-0.5,1.2-0.8,1.9c-0.3,0.8-0.7,1.6-1.1,2.6
				c-0.4,1-0.8,2-1.3,3.1h7c-0.3-0.8-0.6-1.7-1-2.5c-0.3-0.8-0.7-1.7-1-2.4c-0.3-0.8-0.6-1.5-0.8-2.1
				C230.6,486.6,230.4,486,230.2,485.6z"/>
			<path class="st2" d="M273.6,487.7c-0.2-0.3-0.3-0.7-0.5-1.1c-0.2-0.4-0.4-0.7-0.6-1c-0.2-0.3-0.4-0.6-0.6-0.9
				c-0.2-0.3-0.4-0.5-0.5-0.6c-0.4-0.4-0.8-0.6-1.3-0.7c-0.5-0.1-1.1-0.2-1.8-0.2c-0.4,0-0.7,0-0.9,0c-0.3,0-0.5,0-0.8,0
				c-0.2,0-0.5,0-0.8,0c-0.3,0-0.6,0-1,0c0,0.5,0,1.1,0,1.9c0,0.8,0,1.7,0,2.5c0,0.9,0,1.8,0,2.6c0,0.8,0,1.6,0,2.1v6.3
				c0,0.5,0,1.1,0,1.6c0,0.5,0.1,0.9,0.3,1.1c0.3,0.4,0.7,0.7,1.2,0.8c0.5,0.2,1,0.3,1.4,0.3v0.3h-9.2v-0.3c0.5-0.1,1-0.2,1.4-0.3
				c0.5-0.1,0.9-0.4,1.3-0.9c0.1-0.1,0.2-0.2,0.2-0.5c0-0.2,0.1-0.5,0.1-0.7c0-0.3,0-0.6,0.1-0.9c0-0.3,0-0.6,0-0.9c0-0.3,0-0.6,0-1
				c0-0.4,0-0.9,0-1.4c0-0.5,0-1.1,0-1.6c0-0.6,0-1.1,0-1.6v-9.4c-0.4,0-0.7,0-1,0c-0.3,0-0.6,0-0.8,0c-0.2,0-0.5,0-0.8,0
				c-0.3,0-0.6,0-0.9,0c-0.7,0-1.3,0.1-1.8,0.3c-0.5,0.2-0.9,0.4-1.3,0.8c-0.2,0.1-0.3,0.3-0.5,0.6c-0.2,0.3-0.4,0.6-0.6,0.9
				c-0.2,0.3-0.4,0.6-0.6,1c-0.2,0.4-0.4,0.7-0.5,1l-0.3-0.1l0.8-5.4c0.4,0.1,0.8,0.2,1.2,0.2c0.4,0.1,0.9,0.1,1.6,0.1
				c0.7,0,1.4,0,1.9,0c0.6,0,1.1,0,1.6,0c0.5,0,1.1,0,1.6,0c0.6,0,1.2,0,1.9,0c0.7,0,1.3,0,1.9,0c0.6,0,1.1,0,1.6,0
				c0.5,0,1.1,0,1.6,0c0.6,0,1.2,0,1.9,0c0.6,0,1.1-0.1,1.5-0.2c0.4-0.1,0.8-0.2,1.3-0.3l0.9,5.5L273.6,487.7z"/>
			<path class="st2" d="M303.2,502.8h-17.3v-0.3c0.5-0.1,0.9-0.2,1.3-0.4c0.4-0.2,0.7-0.4,1-0.7c0.1-0.1,0.2-0.3,0.2-0.5
				c0.1-0.2,0.1-0.5,0.2-0.7c0-0.3,0.1-0.6,0.1-0.9c0-0.3,0-0.6,0-0.9c0-0.3,0-0.6,0-1.1c0-0.5,0-0.9,0-1.5c0-0.5,0-1.1,0-1.7
				c0-0.6,0-1.1,0-1.6V487c0-0.3,0-0.7,0-1c0-0.4,0-0.7-0.1-1c0-0.3-0.1-0.6-0.1-0.9c-0.1-0.3-0.2-0.4-0.3-0.6
				c-0.3-0.3-0.6-0.5-0.9-0.6s-0.7-0.2-1.2-0.2v-0.3h15.6l1.9,4.7l-0.3,0.1c-1.5-1.9-3-3.2-4.3-3.8c-0.3-0.2-0.9-0.3-1.8-0.4
				c-0.9-0.1-1.9-0.2-3.2-0.2c-0.4,0-0.8,0-1.2,0c-0.4,0-0.7,0.1-0.9,0.1c0,0.3-0.1,0.9-0.1,1.9c0,0.9,0,2,0,3.3c0,0.7,0,1.3,0,1.8
				c0,0.5,0,0.9,0,1.2c0,0.3,0,0.6,0,0.7c0,0.2,0,0.3,0,0.3c0.1,0,0.3,0,0.6,0s0.6,0,1,0c0.4,0,0.7,0,1.1-0.1c0.4,0,0.7-0.1,0.9-0.1
				c0.6-0.1,1-0.3,1.4-0.5c0.4-0.2,0.7-0.5,0.9-0.8c0.2-0.3,0.4-0.7,0.6-1.1c0.1-0.4,0.3-0.9,0.4-1.4h0.3v8.9h-0.3
				c-0.2-0.6-0.4-1.2-0.7-1.9c-0.3-0.6-0.6-1.1-1-1.4c-0.3-0.3-0.7-0.5-1.1-0.7c-0.4-0.2-0.9-0.3-1.5-0.3c-0.3,0-0.5,0-0.7,0
				c-0.2,0-0.4,0-0.6,0c-0.2,0-0.4,0-0.6,0c-0.2,0-0.4,0-0.7,0c0,0.3-0.1,0.7-0.1,1.2c0,0.5,0,1,0,1.6c0,0.2,0,0.5,0,0.8
				c0,0.3,0,0.6,0,1c0,0.3,0,0.6,0,0.9c0,0.3,0,0.5,0,0.7c0,0.6,0.1,1.2,0.1,1.7c0,0.5,0.2,0.9,0.3,1.2c0.2,0.3,0.6,0.5,1.2,0.6
				c0.6,0.1,1.3,0.2,2.1,0.2c0.3,0,0.7,0,1.2,0c0.5,0,1-0.1,1.6-0.1c0.6-0.1,1.2-0.2,1.7-0.4c0.5-0.2,1-0.5,1.5-0.9
				c0.5-0.4,0.9-0.9,1.4-1.5c0.4-0.6,0.9-1.3,1.4-2.1l0.3,0.1L303.2,502.8z"/>
			<path class="st2" d="M338.9,496c-0.3,1.1-0.8,2-1.4,2.8c-0.6,0.8-1.3,1.4-2,1.9c-0.8,0.5-1.6,0.9-2.5,1.2
				c-0.9,0.3-1.8,0.5-2.7,0.6c-0.9,0.1-1.8,0.2-2.7,0.2h-10.3v-0.3c0.5-0.1,0.9-0.2,1.4-0.4c0.4-0.2,0.8-0.4,1-0.7
				c0.1-0.1,0.2-0.3,0.2-0.5c0-0.2,0.1-0.5,0.1-0.8c0-0.3,0.1-0.6,0.1-0.9c0-0.3,0-0.6,0-0.9c0-0.3,0-0.6,0-1.1c0-0.5,0-0.9,0-1.5
				c0-0.5,0-1.1,0-1.7c0-0.6,0-1.1,0-1.6V487c0-0.3,0-0.7,0-1c0-0.3,0-0.7,0-0.9c0-0.3-0.1-0.6-0.1-0.8c-0.1-0.2-0.1-0.4-0.3-0.6
				c-0.3-0.3-0.6-0.6-1-0.7c-0.4-0.1-0.8-0.2-1.3-0.3v-0.3c0.8,0,1.9,0,3.4,0c1.5,0,3.3,0,5.4,0c0.6,0,1.2,0,1.8,0
				c0.6,0,1.2,0,1.9,0.1c0.6,0.1,1.2,0.2,1.9,0.3c0.6,0.1,1.2,0.3,1.8,0.6c0.8,0.3,1.5,0.8,2.2,1.3c0.7,0.5,1.3,1.2,1.8,1.9
				c0.5,0.7,0.9,1.6,1.2,2.5c0.3,1,0.5,2,0.5,3.3C339.4,493.7,339.3,495,338.9,496z M335.4,489.2c-0.3-1-0.8-2-1.4-2.8
				c-0.6-0.8-1.3-1.6-2.1-2.1c-0.8-0.6-1.7-1-2.7-1.1c-0.4-0.1-0.8-0.1-1.2-0.2c-0.5,0-1-0.1-1.7-0.1c-0.2,0-0.5,0-0.7,0
				c-0.3,0-0.5,0-0.8,0.1c-0.3,0-0.5,0.1-0.7,0.1c-0.2,0-0.4,0-0.5,0.1c-0.1,0.9-0.2,2.2-0.2,3.8c0,1.6,0,3.6,0,5.8
				c0,1.2,0,2.3,0,3.3c0,1,0,1.8,0,2.4c0,0.3,0,0.6,0,0.9c0,0.3,0.1,0.6,0.1,0.9c0,0.3,0.1,0.6,0.2,0.8c0.1,0.2,0.2,0.4,0.3,0.5
				c0.4,0.4,0.9,0.6,1.4,0.7c0.6,0.1,1.1,0.2,1.6,0.2c0.5,0,1,0,1.5-0.1c0.5,0,1-0.1,1.4-0.3c2-0.6,3.6-1.7,4.6-3.4
				c1-1.7,1.5-3.8,1.5-6.2C336,491.3,335.8,490.2,335.4,489.2z"/>
			<path class="st2" d="M384.1,499.6c-0.4,0.7-0.9,1.3-1.5,1.8c-0.7,0.5-1.4,0.9-2.3,1.1c-0.9,0.2-1.9,0.4-3,0.4
				c-0.9,0-1.7-0.1-2.4-0.2c-0.7-0.1-1.2-0.2-1.6-0.4c-0.4-0.2-0.8-0.3-1-0.4c-0.2-0.1-0.4-0.2-0.4-0.2c-0.1,0-0.2,0.1-0.4,0.3
				c-0.2,0.2-0.4,0.4-0.5,0.7h-0.3l-0.1-5.6h0.3c0.2,0.5,0.4,1,0.7,1.5c0.3,0.5,0.6,0.9,0.9,1.4c0.3,0.4,0.6,0.8,1,1.1
				c0.3,0.3,0.7,0.6,1,0.7c0.3,0.2,0.7,0.3,1.3,0.5c0.5,0.2,1,0.3,1.5,0.3c1.4,0,2.5-0.4,3.4-1.1c0.9-0.8,1.3-1.8,1.3-3.1
				c0-0.5-0.1-1-0.3-1.4c-0.2-0.4-0.4-0.7-0.7-1c-0.3-0.3-0.6-0.5-1-0.7c-0.4-0.2-0.8-0.4-1.3-0.6c-0.5-0.2-0.8-0.3-1.2-0.4
				c-0.3-0.1-0.7-0.2-0.9-0.3c-0.3-0.1-0.6-0.2-0.9-0.3c-0.3-0.1-0.7-0.2-1.1-0.4c-0.5-0.2-1-0.4-1.4-0.8c-0.5-0.3-0.8-0.7-1.2-1.2
				c-0.3-0.4-0.6-0.9-0.8-1.5c-0.2-0.5-0.3-1.1-0.3-1.7c0-1,0.2-1.9,0.6-2.6c0.4-0.7,0.9-1.3,1.5-1.8c0.6-0.5,1.4-0.9,2.2-1.1
				c0.8-0.2,1.7-0.4,2.6-0.4c0.8,0,1.6,0.1,2.2,0.2c0.6,0.1,1.1,0.3,1.5,0.5c0.4,0.2,0.7,0.3,0.9,0.5c0.2,0.1,0.3,0.2,0.3,0.2
				c0.1,0,0.2-0.1,0.4-0.3c0.2-0.2,0.3-0.5,0.5-0.7h0.3v5.2h-0.3c-0.2-0.6-0.5-1.2-0.9-1.9c-0.4-0.6-0.8-1.2-1.2-1.6
				c-0.5-0.5-1-0.9-1.6-1.2c-0.6-0.3-1.3-0.5-2-0.5c-0.6,0-1.1,0.1-1.7,0.3c-0.5,0.2-1,0.4-1.4,0.8c-0.4,0.3-0.7,0.8-0.9,1.3
				c-0.2,0.5-0.3,1.1-0.3,1.7c0,1,0.3,1.8,0.9,2.4c0.6,0.6,1.4,1.1,2.3,1.4c0.4,0.2,0.7,0.3,1.1,0.4c0.3,0.1,0.7,0.2,1,0.3
				c0.3,0.1,0.6,0.2,1,0.3c0.3,0.1,0.7,0.2,1,0.4c1.3,0.5,2.3,1.2,3,2.1c0.7,0.9,1.1,2,1.1,3.4C384.6,498.1,384.4,498.9,384.1,499.6
				z"/>
			<path class="st2" d="M418.4,496.6c-0.6,1.3-1.3,2.4-2.3,3.3c-1,0.9-2.1,1.7-3.4,2.2c-1.3,0.5-2.7,0.8-4.1,0.8
				c-1.4,0-2.8-0.2-4.1-0.7c-1.3-0.5-2.4-1.2-3.4-2.1c-1-0.9-1.7-2-2.3-3.3c-0.6-1.3-0.8-2.7-0.8-4.2c0-1.6,0.3-3.1,0.9-4.4
				c0.6-1.3,1.4-2.4,2.4-3.3c1-0.9,2.1-1.6,3.5-2.1c1.3-0.5,2.7-0.7,4.2-0.7c1.6,0,3,0.3,4.3,0.8c1.3,0.6,2.4,1.3,3.2,2.3
				c0.9,1,1.6,2.1,2,3.3c0.5,1.2,0.7,2.5,0.7,3.9C419.3,493.9,419,495.3,418.4,496.6z M415.3,489c-0.3-1.2-0.7-2.2-1.3-3.2
				c-0.6-1-1.3-1.7-2.2-2.3c-0.9-0.6-1.9-0.9-3.1-0.9c-1.2,0-2.3,0.3-3.2,0.9c-0.9,0.6-1.6,1.4-2.2,2.3c-0.6,0.9-1,2-1.3,3.2
				c-0.3,1.2-0.4,2.4-0.4,3.6c0,1.3,0.2,2.5,0.5,3.7c0.3,1.2,0.7,2.2,1.3,3.1c0.6,0.9,1.3,1.6,2.2,2.2c0.9,0.5,1.9,0.8,3.1,0.8
				c1.2,0,2.2-0.3,3.1-0.9c0.9-0.6,1.6-1.4,2.2-2.3c0.6-1,1-2,1.3-3.2c0.3-1.2,0.4-2.4,0.4-3.6C415.8,491.3,415.6,490.2,415.3,489z"
				/>
			<path class="st2" d="M450.5,502.8h-18.2v-0.3c0.5-0.1,0.9-0.2,1.4-0.4c0.5-0.2,0.8-0.4,1.1-0.7c0.1-0.1,0.2-0.3,0.2-0.5
				c0.1-0.2,0.1-0.5,0.2-0.7c0-0.3,0.1-0.6,0.1-0.9c0-0.3,0-0.6,0-0.9c0-0.3,0-0.6,0-1.1c0-0.5,0-0.9,0-1.5c0-0.5,0-1.1,0-1.7
				c0-0.6,0-1.1,0-1.6V487c0-0.3,0-0.7,0-1c0-0.3,0-0.7,0-0.9c0-0.3-0.1-0.6-0.1-0.8c-0.1-0.2-0.1-0.4-0.3-0.5
				c-0.3-0.3-0.6-0.6-1.1-0.7c-0.4-0.2-0.9-0.3-1.4-0.3v-0.3h9v0.3c-0.2,0-0.5,0.1-0.9,0.2c-0.3,0.1-0.7,0.2-1,0.4
				c-0.3,0.2-0.6,0.4-0.8,0.7c-0.2,0.3-0.3,0.7-0.4,1.2c0,0.7,0,1.3,0,1.8c0,0.5,0,1.1,0,1.6c0,0.5,0,1.1,0,1.6c0,0.6,0,1.2,0,1.9
				c0,0.6,0,1.2,0,1.8c0,0.5,0,1,0,1.5c0,0.5,0,1,0,1.5c0,0.5,0,1.1,0,1.7c0,0.6,0,1.2,0.1,1.7c0,0.5,0.1,1,0.3,1.2
				c0.1,0.1,0.2,0.2,0.5,0.3c0.2,0.1,0.5,0.2,0.8,0.2c0.3,0.1,0.7,0.1,1,0.2c0.4,0,0.8,0.1,1.1,0.1c0.2,0,0.4,0,0.7,0
				c0.3,0,0.7,0,1.1-0.1c0.4,0,0.8-0.1,1.2-0.1c0.4-0.1,0.8-0.1,1.1-0.2c0.8-0.2,1.4-0.5,1.9-0.8c0.5-0.3,0.9-0.7,1.3-1.2
				c0.4-0.4,0.7-0.9,0.9-1.4c0.2-0.5,0.5-1.1,0.7-1.6l0.3,0.1L450.5,502.8z"/>
			<path class="st2" d="M484.4,483.2c-0.4,0.3-0.7,0.7-0.9,1.2c-0.1,0.1-0.1,0.3-0.2,0.7c0,0.3-0.1,0.7-0.1,1c0,0.4-0.1,0.8-0.1,1.3
				c0,0.4,0,0.9,0,1.3c0,0.8,0,1.7-0.1,2.7c0,1-0.1,2.1-0.1,3.4c0,0.4,0,0.8-0.1,1.4c0,0.5-0.1,1.1-0.3,1.7
				c-0.2,0.6-0.4,1.2-0.7,1.8c-0.3,0.6-0.8,1.2-1.4,1.7c-0.6,0.5-1.4,0.9-2.3,1.2c-0.9,0.3-2.1,0.4-3.5,0.4c-1.4,0-2.5-0.1-3.4-0.4
				c-0.9-0.3-1.7-0.7-2.3-1.1c-0.6-0.5-1.1-1-1.4-1.6c-0.3-0.6-0.6-1.1-0.7-1.7c-0.2-0.6-0.3-1.1-0.3-1.5c0-0.5,0-0.8,0-1
				c0-0.5,0-1.2,0-2.1c0-0.8,0-1.8,0-2.8V487c0-0.3,0-0.7,0-1c0-0.3,0-0.7,0-0.9c0-0.3-0.1-0.6-0.1-0.8c-0.1-0.2-0.1-0.4-0.3-0.6
				c-0.3-0.3-0.6-0.6-1-0.7c-0.4-0.1-0.8-0.2-1.3-0.3v-0.3h8.4v0.3c-0.3,0-0.5,0.1-0.8,0.2c-0.3,0.1-0.6,0.2-0.8,0.4
				c-0.2,0.2-0.5,0.4-0.6,0.7c-0.2,0.3-0.3,0.6-0.3,1.1c0,0.5,0,0.9,0,1.3c0,0.4,0,0.7,0,1.1c0,0.4,0,0.7,0,1.1c0,0.4,0,0.8,0,1.3
				c0,0.6,0,1.2,0,1.7c0,0.5,0,1,0,1.4c0,0.4,0,0.9,0,1.3c0,0.4,0,0.8,0,1.3c0,1,0.2,1.9,0.5,2.7c0.3,0.8,0.7,1.5,1.2,2.1
				c0.5,0.6,1.1,1,1.9,1.3c0.7,0.3,1.6,0.5,2.5,0.5c1.1,0,2-0.1,2.7-0.4c0.7-0.2,1.4-0.6,1.9-1c0.5-0.4,0.9-0.9,1.2-1.5
				c0.3-0.6,0.5-1.2,0.7-1.8c0.1-0.6,0.2-1.3,0.3-2c0-0.7,0.1-1.3,0.1-2c0-0.5,0-1,0-1.4c0-0.4,0-0.8,0-1.2c0-0.4,0-0.7,0-1.1
				c0-0.4,0-0.8,0-1.2c0-0.4,0-0.8,0-1.2c0-0.4,0-0.8,0-1.1c0-0.4,0-0.7-0.1-1c0-0.3-0.1-0.6-0.2-0.7c-0.2-0.5-0.5-1-1-1.3
				c-0.5-0.3-1.1-0.6-2.1-0.7v-0.3h7v0.3C485.4,482.8,484.8,483,484.4,483.2z"/>
			<path class="st2" d="M518.6,487.7c-0.2-0.3-0.3-0.7-0.5-1.1c-0.2-0.4-0.4-0.7-0.6-1c-0.2-0.3-0.4-0.6-0.6-0.9
				c-0.2-0.3-0.4-0.5-0.5-0.6c-0.4-0.4-0.8-0.6-1.3-0.7c-0.5-0.1-1.1-0.2-1.8-0.2c-0.4,0-0.7,0-0.9,0c-0.3,0-0.5,0-0.8,0
				c-0.2,0-0.5,0-0.8,0c-0.3,0-0.6,0-1,0c0,0.5,0,1.1,0,1.9c0,0.8,0,1.7,0,2.5c0,0.9,0,1.8,0,2.6c0,0.8,0,1.6,0,2.1v6.3
				c0,0.5,0,1.1,0,1.6c0,0.5,0.1,0.9,0.3,1.1c0.3,0.4,0.7,0.7,1.2,0.8c0.5,0.2,1,0.3,1.4,0.3v0.3h-9.2v-0.3c0.5-0.1,1-0.2,1.4-0.3
				c0.5-0.1,0.9-0.4,1.3-0.9c0.1-0.1,0.2-0.2,0.2-0.5c0-0.2,0.1-0.5,0.1-0.7c0-0.3,0-0.6,0.1-0.9c0-0.3,0-0.6,0-0.9c0-0.3,0-0.6,0-1
				c0-0.4,0-0.9,0-1.4c0-0.5,0-1.1,0-1.6c0-0.6,0-1.1,0-1.6v-9.4c-0.4,0-0.7,0-1,0c-0.3,0-0.6,0-0.8,0c-0.2,0-0.5,0-0.8,0
				c-0.3,0-0.6,0-0.9,0c-0.7,0-1.3,0.1-1.8,0.3c-0.5,0.2-0.9,0.4-1.3,0.8c-0.2,0.1-0.3,0.3-0.5,0.6c-0.2,0.3-0.4,0.6-0.6,0.9
				c-0.2,0.3-0.4,0.6-0.6,1c-0.2,0.4-0.4,0.7-0.5,1l-0.3-0.1l0.8-5.4c0.4,0.1,0.8,0.2,1.2,0.2c0.4,0.1,0.9,0.1,1.6,0.1
				c0.7,0,1.4,0,1.9,0c0.6,0,1.1,0,1.6,0c0.5,0,1.1,0,1.6,0c0.6,0,1.2,0,1.9,0c0.7,0,1.3,0,1.9,0c0.6,0,1.1,0,1.6,0
				c0.5,0,1.1,0,1.6,0c0.6,0,1.2,0,1.9,0c0.6,0,1.1-0.1,1.5-0.2c0.4-0.1,0.8-0.2,1.3-0.3l0.9,5.5L518.6,487.7z"/>
			<path class="st2" d="M531.1,502.8v-0.3c0.5-0.1,0.9-0.2,1.3-0.4c0.4-0.2,0.7-0.4,1-0.7c0.1-0.1,0.2-0.3,0.2-0.5
				c0-0.2,0.1-0.5,0.1-0.7c0-0.3,0-0.6,0.1-0.9c0-0.3,0-0.6,0-0.9c0-0.3,0-0.6,0-1.1c0-0.5,0-0.9,0-1.5c0-0.5,0-1.1,0-1.7
				c0-0.6,0-1.1,0-1.6V487c0-0.3,0-0.7,0-1c0-0.3,0-0.7,0-0.9c0-0.3-0.1-0.6-0.1-0.8c-0.1-0.2-0.1-0.4-0.3-0.6
				c-0.3-0.3-0.6-0.6-1-0.7c-0.4-0.1-0.8-0.2-1.3-0.3v-0.3h8.5v0.3c-0.4,0.1-0.8,0.2-1.3,0.3c-0.5,0.2-0.8,0.5-1,0.9
				c-0.2,0.3-0.3,0.7-0.3,1.2c0,0.5,0,1,0,1.4c0,0.5,0,0.9,0,1.4c0,0.5,0,0.9,0,1.4c0,0.5,0,1,0,1.5c0,0.5,0,1,0,1.6v6.4
				c0,0.5,0,1.1,0,1.6c0,0.5,0.1,0.9,0.3,1.1c0.2,0.3,0.6,0.6,1.1,0.7c0.5,0.2,0.9,0.3,1.3,0.3v0.3H531.1z"/>
			<path class="st2" d="M573.6,496.6c-0.6,1.3-1.3,2.4-2.3,3.3c-1,0.9-2.1,1.7-3.4,2.2c-1.3,0.5-2.7,0.8-4.1,0.8
				c-1.4,0-2.8-0.2-4.1-0.7s-2.4-1.2-3.4-2.1c-1-0.9-1.7-2-2.3-3.3c-0.6-1.3-0.8-2.7-0.8-4.2c0-1.6,0.3-3.1,0.9-4.4
				c0.6-1.3,1.4-2.4,2.4-3.3c1-0.9,2.1-1.6,3.5-2.1c1.3-0.5,2.7-0.7,4.2-0.7c1.6,0,3,0.3,4.3,0.8c1.3,0.6,2.4,1.3,3.2,2.3
				c0.9,1,1.6,2.1,2,3.3c0.5,1.2,0.7,2.5,0.7,3.9C574.4,493.9,574.1,495.3,573.6,496.6z M570.5,489c-0.3-1.2-0.7-2.2-1.3-3.2
				c-0.6-1-1.3-1.7-2.2-2.3c-0.9-0.6-1.9-0.9-3.1-0.9c-1.2,0-2.3,0.3-3.2,0.9c-0.9,0.6-1.6,1.4-2.2,2.3c-0.6,0.9-1,2-1.3,3.2
				c-0.3,1.2-0.4,2.4-0.4,3.6c0,1.3,0.2,2.5,0.5,3.7c0.3,1.2,0.7,2.2,1.3,3.1c0.6,0.9,1.3,1.6,2.2,2.2c0.9,0.5,1.9,0.8,3.1,0.8
				c1.2,0,2.2-0.3,3.1-0.9c0.9-0.6,1.6-1.4,2.2-2.3c0.6-1,1-2,1.3-3.2c0.3-1.2,0.4-2.4,0.4-3.6C570.9,491.3,570.8,490.2,570.5,489z"
				/>
			<path class="st2" d="M608.8,483.2c-0.4,0.3-0.7,0.7-1,1.2c-0.1,0.3-0.2,0.8-0.3,1.6c0,0.8-0.1,1.6-0.1,2.4c0,0.8-0.1,1.8-0.1,2.9
				c0,1.1,0,2.3,0,3.5c0,0.5,0,1.1,0,1.8c0,0.7,0,1.3,0,2c0,0.7,0,1.4,0,2.1c0,0.7,0,1.3,0,1.8c0,0.1,0,0.1-0.1,0.2
				c0,0-0.1,0.1-0.2,0.1c-0.2,0-0.3-0.1-0.5-0.3c-1.6-1.8-3.1-3.5-4.4-5.1c-1.3-1.5-2.6-3-3.8-4.4c-1.2-1.4-2.4-2.8-3.5-4.1
				c-1.2-1.3-2.4-2.7-3.6-4.2v11.9c0,1,0,1.8,0.1,2.6c0,0.8,0.2,1.3,0.4,1.7c0.2,0.4,0.5,0.8,1,1c0.4,0.2,1.1,0.4,1.8,0.5v0.3h-7
				v-0.3c0.5-0.1,0.9-0.2,1.4-0.4c0.5-0.2,0.8-0.5,1.1-0.9c0.3-0.4,0.4-1,0.5-1.8c0.1-0.8,0.1-1.7,0.2-2.8c0-0.8,0.1-1.8,0.1-2.9
				c0-1.1,0-2.3,0-3.5c0-0.5,0-1,0-1.4c0-0.4,0-0.7,0-1c0-0.3,0-0.7,0-1c0-0.4,0-0.8,0-1.4c-0.1-0.5-0.2-1-0.4-1.3
				c-0.2-0.3-0.5-0.6-0.7-0.8c-0.3-0.2-0.6-0.3-0.9-0.4c-0.3-0.1-0.6-0.1-0.9-0.2v-0.3h5.7l13.4,15.7v-9.6c0-0.8,0-1.5,0-2.2
				c0-0.7-0.1-1.2-0.3-1.6c-0.2-0.5-0.5-1-1-1.3c-0.5-0.3-1.2-0.6-2.1-0.7v-0.3h7v0.3C609.8,482.8,609.2,483,608.8,483.2z"/>
			<path class="st2" d="M637.8,499.6c-0.4,0.7-0.9,1.3-1.5,1.8c-0.7,0.5-1.4,0.9-2.3,1.1c-0.9,0.2-1.9,0.4-3,0.4
				c-0.9,0-1.7-0.1-2.4-0.2c-0.7-0.1-1.2-0.2-1.6-0.4c-0.4-0.2-0.8-0.3-1-0.4c-0.2-0.1-0.4-0.2-0.4-0.2c-0.1,0-0.2,0.1-0.4,0.3
				c-0.2,0.2-0.4,0.4-0.5,0.7h-0.3l-0.1-5.6h0.3c0.2,0.5,0.4,1,0.7,1.5c0.3,0.5,0.6,0.9,0.9,1.4c0.3,0.4,0.6,0.8,1,1.1
				c0.3,0.3,0.7,0.6,1,0.7c0.3,0.2,0.7,0.3,1.3,0.5c0.5,0.2,1,0.3,1.5,0.3c1.4,0,2.5-0.4,3.4-1.1c0.9-0.8,1.3-1.8,1.3-3.1
				c0-0.5-0.1-1-0.3-1.4c-0.2-0.4-0.4-0.7-0.7-1c-0.3-0.3-0.6-0.5-1-0.7c-0.4-0.2-0.8-0.4-1.3-0.6c-0.5-0.2-0.8-0.3-1.2-0.4
				c-0.3-0.1-0.7-0.2-0.9-0.3c-0.3-0.1-0.6-0.2-0.9-0.3c-0.3-0.1-0.7-0.2-1.1-0.4c-0.5-0.2-1-0.4-1.4-0.8c-0.5-0.3-0.8-0.7-1.2-1.2
				c-0.3-0.4-0.6-0.9-0.8-1.5c-0.2-0.5-0.3-1.1-0.3-1.7c0-1,0.2-1.9,0.6-2.6c0.4-0.7,0.9-1.3,1.5-1.8c0.6-0.5,1.4-0.9,2.2-1.1
				c0.8-0.2,1.7-0.4,2.6-0.4c0.8,0,1.6,0.1,2.2,0.2c0.6,0.1,1.1,0.3,1.5,0.5c0.4,0.2,0.7,0.3,0.9,0.5c0.2,0.1,0.3,0.2,0.3,0.2
				c0.1,0,0.2-0.1,0.4-0.3c0.2-0.2,0.3-0.5,0.5-0.7h0.3v5.2h-0.3c-0.2-0.6-0.5-1.2-0.9-1.9c-0.4-0.6-0.8-1.2-1.2-1.6
				c-0.5-0.5-1-0.9-1.6-1.2c-0.6-0.3-1.3-0.5-2-0.5c-0.6,0-1.1,0.1-1.7,0.3c-0.5,0.2-1,0.4-1.4,0.8c-0.4,0.3-0.7,0.8-0.9,1.3
				c-0.2,0.5-0.3,1.1-0.3,1.7c0,1,0.3,1.8,0.9,2.4c0.6,0.6,1.4,1.1,2.3,1.4c0.4,0.2,0.7,0.3,1.1,0.4c0.3,0.1,0.7,0.2,1,0.3
				c0.3,0.1,0.6,0.2,1,0.3c0.3,0.1,0.7,0.2,1,0.4c1.3,0.5,2.3,1.2,3,2.1c0.7,0.9,1.1,2,1.1,3.4C638.4,498.1,638.2,498.9,637.8,499.6
				z"/>
		</g>
	</g>
</g>
</svg>
